<mxfile host="65bd71144e">
    <diagram id="R74SDMXlJxOJD4cbq-z2" name="Page-1">
        <mxGraphModel dx="4698" dy="743" grid="1" gridSize="10" guides="1" tooltips="1" connect="1" arrows="1" fold="1" page="1" pageScale="1" pageWidth="850" pageHeight="1100" math="0" shadow="0">
            <root>
                <mxCell id="0"/>
                <mxCell id="1" parent="0"/>
                <mxCell id="91" value="" style="rounded=1;whiteSpace=wrap;html=1;fillColor=none;container=0;" vertex="1" parent="1">
                    <mxGeometry x="-1675" y="169.48" width="1065" height="550.52" as="geometry"/>
                </mxCell>
                <mxCell id="21" value="" style="endArrow=classic;html=1;" edge="1" parent="1">
                    <mxGeometry width="50" height="50" relative="1" as="geometry">
                        <mxPoint x="-1448.5" y="450" as="sourcePoint"/>
                        <mxPoint x="-1335.5" y="450" as="targetPoint"/>
                    </mxGeometry>
                </mxCell>
                <mxCell id="22" value="" style="endArrow=classic;html=1;" edge="1" parent="1">
                    <mxGeometry width="50" height="50" relative="1" as="geometry">
                        <mxPoint x="-1333.5" y="507.7800000000001" as="sourcePoint"/>
                        <mxPoint x="-1445.5" y="507.78" as="targetPoint"/>
                    </mxGeometry>
                </mxCell>
                <mxCell id="24" value="" style="endArrow=classic;html=1;" edge="1" parent="1">
                    <mxGeometry width="50" height="50" relative="1" as="geometry">
                        <mxPoint x="-1553.5" y="507.78000000000003" as="sourcePoint"/>
                        <mxPoint x="-1665.5" y="507.78000000000003" as="targetPoint"/>
                    </mxGeometry>
                </mxCell>
                <mxCell id="31" value="" style="endArrow=classic;html=1;" edge="1" parent="1">
                    <mxGeometry width="50" height="50" relative="1" as="geometry">
                        <mxPoint x="-1661.5" y="450" as="sourcePoint"/>
                        <mxPoint x="-1548.5" y="450" as="targetPoint"/>
                    </mxGeometry>
                </mxCell>
                <mxCell id="32" value="HTTP Request" style="text;html=1;align=center;verticalAlign=middle;resizable=0;points=[];autosize=1;strokeColor=none;fillColor=none;container=0;" vertex="1" parent="1">
                    <mxGeometry x="-1662.5" y="415.57" width="100" height="30" as="geometry"/>
                </mxCell>
                <mxCell id="41" value="HTTP Response" style="text;html=1;align=center;verticalAlign=middle;resizable=0;points=[];autosize=1;strokeColor=none;fillColor=none;container=0;" vertex="1" parent="1">
                    <mxGeometry x="-1657.5" y="515.5699999999999" width="110" height="30" as="geometry"/>
                </mxCell>
                <mxCell id="42" value="CRUD Operation" style="text;html=1;align=center;verticalAlign=middle;resizable=0;points=[];autosize=1;strokeColor=none;fillColor=none;container=0;" vertex="1" parent="1">
                    <mxGeometry x="-1445.5" y="415.57" width="110" height="30" as="geometry"/>
                </mxCell>
                <mxCell id="43" value="CRUD Response" style="text;html=1;align=center;verticalAlign=middle;resizable=0;points=[];autosize=1;strokeColor=none;fillColor=none;container=0;" vertex="1" parent="1">
                    <mxGeometry x="-1447.5" y="510" width="120" height="30" as="geometry"/>
                </mxCell>
                <mxCell id="48" value="Authentication Layer (owners table)" style="text;html=1;align=center;verticalAlign=middle;resizable=0;points=[];autosize=1;strokeColor=none;fillColor=none;rotation=0;container=0;" vertex="1" parent="1">
                    <mxGeometry x="-1622.85" y="302" width="210" height="30" as="geometry"/>
                </mxCell>
                <mxCell id="3" value="" style="aspect=fixed;perimeter=ellipsePerimeter;html=1;align=center;shadow=0;dashed=0;spacingTop=3;image;image=img/lib/active_directory/database_server.svg;container=0;" vertex="1" parent="1">
                    <mxGeometry x="-1320.1" y="450.57" width="49.2" height="60" as="geometry"/>
                </mxCell>
                <mxCell id="9" value="&lt;br&gt;SupaBase &lt;br&gt;PostGreSQL&lt;br&gt;DB" style="text;html=1;align=center;verticalAlign=middle;resizable=0;points=[];autosize=1;strokeColor=none;fillColor=none;container=0;" vertex="1" parent="1">
                    <mxGeometry x="-1340.5" y="495.57" width="90" height="70" as="geometry"/>
                </mxCell>
                <mxCell id="11" value="Vercel Serverless&lt;br&gt;Functions&lt;br&gt;&lt;br&gt;(Originally &lt;br&gt;Express.js Server)" style="text;html=1;align=center;verticalAlign=middle;resizable=0;points=[];autosize=1;strokeColor=none;fillColor=none;container=0;" vertex="1" parent="1">
                    <mxGeometry x="-1555.23" y="485.57" width="120" height="90" as="geometry"/>
                </mxCell>
                <mxCell id="37" value="" style="verticalLabelPosition=bottom;html=1;verticalAlign=top;align=center;strokeColor=none;fillColor=#00BEF2;shape=mxgraph.azure.multi_factor_authentication;pointerEvents=1;container=0;" vertex="1" parent="1">
                    <mxGeometry x="-1311" y="302" width="25" height="50" as="geometry"/>
                </mxCell>
                <mxCell id="56" value="" style="shape=image;verticalLabelPosition=bottom;labelBackgroundColor=default;verticalAlign=top;aspect=fixed;imageAspect=0;image=data:image/png,iVBORw0KGgoAAAANSUhEUgAAAcYAAADnCAYAAACE5fYOAAAAAXNSR0IArs4c6QAAAARnQU1BAACxjwv8YQUAAAAJcEhZcwAADsMAAA7DAcdvqGQAAC58SURBVHhe7d0HeBRl/gfwN3QEg8ppTkUOpBgEu5ynx/3xPA+7niIqemA5EUQs2DjhEFGwUAQUURARwRPkKBaqoBiaVAUkBOlCEEGjhBpp+5/vm3fCm9l3dmc3yWz7fp7nfdjZnV02s+/M7+2TFrAIIiIiksqpf4mIiMjCwEhERKRhYCQiItIwMBIREWk8BcbDhw/LRP7D2Cgc+yNHjqhnyE9Hjx6Vxx//kv/s488xgrGB604qXvvDjkrdunWryM/PF+XKlRN169YVVatWVa+QHzZv3iz27t0rKlasKOrXry/Kly+vXiE/bNiwQRw4cEBUqVJFHn/y19q1a8XBgwdFtWrV5PWH/IPjjvyP4Jieni5q166tXkl+IWuMeXl5MigCSm44SOSf3NxcGRTh0KFDIicnRz4mf6xfv14GRSgoKBBr1qyRj8kfq1atkhdn2Ldvnywkkn9QKLFbqnbv3i127NghH6cC9jESERFpQgbGmjVriho1asjHaEqtV6+efEz+qFWrlqhevbp8jKbURo0aycfkDzSd2l0HaErNzMyUj8kfTZo0EZUqVZKP0ZRap04d+Zj80bBhw6KuGzSlZmRkyMepwNPKN3bna4UKFeS/5B/8PGjOSEtLY/9iDKALAQkFQyTyl338kfdxDpC/cO3BNSjVrv1cEo6IiEjDIjAREZGGgZGIiEjDwEhERKRhYCQiItIwMBIREWkYGImIiDQMjERERBoGRiIiIg0DIxERkYaBkYiISMPASEREpGFgJCIi0jAwEhERaRgYiYiINAyMREREGgZGIiIiDQMjERGRhoGRiIhIw8BIRESkYWAkIiLSMDASERFpGBiJiIg0DIxEMbZp0yb1iIjiAQMjUQxlZ2eLdu3aqS0iigcMjEQxsmfPHnH77beLrKwsMWrUKPUsEcUaAyNRjHz66aciJydHHD58WHTs2FHk5uaqV4golhgYiWKgoKBA9OzZUxw9elRu79+/X4wYMUI+JqLYYmAk8hmC4SuvvCLWrl2rnhEiEAiIAQMGiB07dqhniChWGBiJfIZRqEOGDFFbx+zatUt06NBBHDlyRD1DRLHAwEjkM9QMd+7cqbaKmzVrlli6dKnaIqJYSAugDYeIfDF//nzRvHnzkLXCZs2aiblz56otIvIba4xEPsGAm169eoVtKp03bx6nbxDFEAMjkU+WLVsmPv/8c7UV2qBBg8TevXvVFhH5iYGRyAcYWNO2bVtx6NAh9Uxoy5cvF2PGjFFbROQnBkYiHwwfPlxs3LhRbYWHKR0PPPCA2LJli3qGiPzCwEjkA9P0DC/69OmjHhGRXxgYicoQan6PPvpo1HfQGDdunNi2bZvaIiI/cLoGURnCnMTLLrvMc9+iySWXXCLmzJkjKlWqpJ4horLEGiNRGcLo0pIERVi8eLH47LPP1BYRlTXWGInKyJIlS2RtrzROMdQ6sTgAEZU91hiJykB+fr5o3759qQRFWLBgQdQDeIgoMikRGHG/Oy7MHBsIDDj+9u2VUsW0adPEihUr1FbpwKo5kd59A8c9FY9/vMB1B8efDXOxgWOPFKmkb0rFPLDdu3eL8uXLi3r16nEAg88wGnPfvn3yuDdo0ECkpaWpV5IXaotoQv3uu+/UM6WjXLly4vnnnxfdunVTz4S3fv16uRRd1apVZf4n/yAo4vijj7l69eqiTp066hXyw4EDB+T1B4XCGjVqiDPOOEO9El5S1xhRukZQBGRS/f53VPY2b94sgyIcPHhQZGdny8fJDCfhyy+/XOpBEfDZvXv3Flu3blXPhLZmzRoZFAEXCVykyT85OTlFA6+wvF9ubq58TP7YsGFDUUsJCqt5eXnysRfsYyQqRT/++KN477331FbpQ4Dr3LlzVM1DRORNUgfGjIwMkZ6eLh+jKbVhw4byMfkDTUfVqlWTj9GU2rhxY/k4maFGt337drVVNmbOnOmp/zIzM1NUqVJFPkZTav369eVj8kejRo1ExYoV5WM0pdaqVUs+Jn+g6wDdD4Cm1Jo1a8rHXqTEdA2UrtG3heBI/kL2QjM2MqidSZMVAtY111zjy0Cviy++WE4HCQdNSUipcPzjEfICzgFce1Khfz3e2C0rFSpUkP96lRJnCg4Kg2Js4GKA45/sF2VcAAcOHOhLUASsqDNy5Ei15Q7HPRWOf7zCdQfHn0ExNnDskSLFCf5EpWDVqlXinHPOUVv+uPDCC8XChQuLmuuIqHSwGElUQr/88oto0aKF2vIP+hnfeOMNtUVEpYWBkaiE3n333TIfcGOCZluMUI32zh1EZMbASFQC+/fvF6+99praio3XX39dPSKi0sDASBQl1NieeuqpmN9l/+233+bkcaJSxMBIFKVvv/22TCfze4VVVVq1alXi21sRUSEGRqIo9e/fv2jJu1j7+uuvxaxZs9QWEZUEp2sQRWH69Oni2muvjau7Jpx77rmlfkcPolTEGiNRhHbt2iW6d+8ed7cSWrlypRg8eLDaIqJoMTASRQg3Df7mm2/UVnx59dVX5ULmRBQ9BkaiCPz888+iXbt2vi39Finc6uudd95RW0QUDQZGIo/QdNq3b1/xww8/qGfiD77jiy++WCb3gyRKFQyMRB7hptejRo1SW/ELiw48++yzvGcjUZQYGIk8QNPpQw89lDD9dzNmzGCtkShKnK5B5MHcuXNF8+bN424kaihnn322yM7OVltE5BVrjEQe9OnTJ6GCIqxevdrTPRuJqDjWGInCmD17trjiiivUVmLBPSIx6Z83yiXyjjVGohB27twpp2ckKqzn+sorr6gtIvKCgZEohA8//FBs3LhRbSWmnj17JvzfQOQnBkYiF3l5eXLeYqL3NhQUFIihQ4eqLSIKh32MRAaYntG+ffukWUWmcuXKsq/xrLPOUs8QkRvWGIkM1qxZIyZMmKC2Et9vv/0m7r33XvkvEYXGwEhk8MILL8i7aCQT1BizsrLUFhG5YVMqkcOUKVPEDTfckPB9iyYXXnihWLZsmdoiIhPWGIk0uCM/FuFO1vIi7vQ/YMAAtUVEJgyMRBos/Yb7LSazIUOGyBG3RGTGwEikYIFwDFBJdpjT+Prrr6stInJiYCRSBg8enBJ3vz969Kic9I9VcYgoGAMjkWXPnj1i2LBhais1DBw4UD0iIh0DI6W8Q4cOycn8P/30k3omNYwZM4b3bCQy4HQNSnlffvmlvHtGKp4KtWrVEhs2bBCVKlVSzxARa4yU8pJhPdRo5ebmivHjx6stIgLWGCmlTZ06VVx33XVqKzU1adJEropTrhzLyUTAM4FS1o4dO8TDDz+stlLXqlWreM9GIg0DI6WsyZMni82bN6ut1NavXz+xbt06tUWU2hgYKSX9+uuvomvXrnJOHxUejzfffFNtEaU2BkZKObjXYufOncXOnTvVM4ShBgiMWEuVKNUxMFLKQfPpRx99pLbIhjv9P/XUU7xnI6U8BkZKKYcPHxZdunQR+fn56hnSLVy4MOkXUScKh9M1KKVgwA3utUjuateuLb7//nu1RZR6WGOklIGl3zgtIbwtW7bwno2U0jwFRjQ/IZH/UKHHsceAESqZjz/+WMybN09tUShDhw4V+/fvV1uxg1HDyP9s2IoNXHdS8doftil169atsj8Gq2LUrVtXVK1aVb1CfsBAkb1794qKFSuK+vXri/Lly6tXKBJoGmzatGnKLRReEt26dRO9evVSW7Gxdu1acfDgQVGtWjV5/SH/4LhjHV0Ex/T0dNnEnipC1hhxl297kAJKbjhI5B+sY4mgCGgGzMnJkY8pcu+99x6DYoR69+4tVq5cqbb8hxV5cHGGffv2cTEGn6FQYrdU7d69W64UlSrYx0hJDxdV3ISYIjdo0CD1iCh1hAyMNWvWFDVq1JCP0ZRar149+Zj8gVsCVa9eXT5GU2qjRo3kY/IO/SOtW7dmbTFKo0ePjtmkfyxubt8OC02pderUkY/JHw0bNizqukFTakZGhnycCjxN17A7XytUqCD/Jf/g50FzRlpaGvsXo5CVlSVatGhR1CRHkWvcuLFYvHixOO6449Qz/kEXDhLyPs4B8heuPbgGpdq131NTKg4Kg2Js4GKAY8+gGB3ca5FBsWRwl/+JEyeqLX+hpQr5n0ExNnDdScVrPyf4U9J6//33RZs2bdQWlURmZqbIzs7mPRspJTCXU1LCiOqXXnpJbVFJrVmzRjz33HNqiyi5MTBSUpo0aZJYvXq12qLSMGzYME7ZopTAwEhJB0uaPf3002qLSgtu08V7NlIqYGCkpIJRdBhwgxvvUunCcIT+/fuLZcuWqWeIkhMDIyUVrBb0wQcfqC0qCz169JArMRElKwZGShqoLXbs2FH88ssv6hkqC7NnzxZLly5VW0TJh9M1KGlMmDBB3HrrrWqLytJJJ50ktm3bJqpUqaKeIUoerDFS0uC6nv5Brfytt95SW0TJhYGRkgL6FefOnau2yA+4ZyNXFaJkxMBICQ/TMzp16qS2yC+Y9N+lSxe1RZQ8GBgp4Y0aNYrTM2IEt/OK1d03iMoKAyMlNNxOql+/fmqL/IY777z22mtqiyg5MDBSwkL/VocOHUR+fr56hmJhzJgxYtGiRWqLKPExMFLCWrFihZg+fbraolhBAaVdu3aioKBAPUOU2BgYKSFh5ZVnn31W7N+/Xz1DsYR7Nk6dOlVtESU2TvCnhDR69GjRtm1btUXxICMjQ/zwww+8ZyMlPOZgSji7du0Sr776qtqieLFjxw7RrVs3udg4USJjYKSEg9ri8uXL1RbFEwzE2b59u9oiSkxsSqWEsmnTJnHBBRdwJGoca9++PZeLo4TGGiMlDJThMGeRQTG+Yam4BQsWqC2ixMMaIyUMrG5Tp04dsXv3bvUMxaubbrpJTJo0SaSlpalniBIHa4yUEDBXrmXLlgyKCWLGjBkiKytLbRElFtYYKSGMHz9etGrVSm1RIqhZs6a8Z2PlypXVM0SJgTVGSghYrJoSS15enhg2bJjaIkocrDFS3Hv33XfFfffdp7YokaBPGLenYq2REglrjBTXtm7dKrp27aq2KNFs3rxZPPzww2qLKDEwMFJcw4RxrKhCiWvs2LFywXeiRMHASHFr7dq1onfv3lxiLMHt2bNHDBw4UG0RxT8GRopLmJ7RvXt3Ts9IEiNHjhRz5sxRW0TxjYNvKC5hwMbFF18s9u3bp56hRNe0aVMxe/ZsUa1aNfUMUXxijZHiDu61+MADDzAoJhn0M86cOVNtEcUvBkaKOyNGjBBz585VW5Qs0DzesWNHsXfvXvUMUXxiYKS4UlBQwDszJDHckqpv374cUEVxjX2MREREGtYYiYiINAyMREREGgZGIiIiDQMjERGRhoGRiIhIw8BIRESkSYnAePjwYXHkyBG1RX7CbCAc/6NHj6pnyE847jz+sYPrDo4/Z8XFBo49UqSSfh7jli1b5ELU5cuXF/Xq1ROVKlVSr5AfNm3aJJd2w3Fv0KCBSEtLU6+QH9avXy8XTahatarM/+QfBEUcfyxxWL16dXnTZvLPgQMH5PUHhcIaNWqIM844Q70SXlLXGHEfP/vuDMikuI0R+Qc3qbXXO8VyYNnZ2fIx+QMLsSMoAi4SuEiTf3JycmRQBCyDl5ubKx+TPzZs2FDUUpKfny/y8vLkYy/Yx0hERKRJ6sCYkZEh0tPT5WM0pTZs2FA+Jn+g6ci+xRCaUhs3biwfkz8yMzNFlSpV5GM0pdavX18+Jn80atRIVKxYUT5GU2qtWrXkY/IHug7KlSsMcWhKrVmzpnzsRUqslYrOV/RtITiSv5C90IyNDGpnUvIPmpKQePxjA3kf5wCuPexf95898KZChQryX6+4iDgREZGGRUgiIiINAyMREZGGgZGIiEjDwEhERKRhYCQiItIwMBIREWkYGImIiDQMjERERBoGRiIiIg0DIxERkYaBkYiISMPASEREpGFgJCIi0jAwEhERaRgYiYiINAyMREREGgZGIiIiDQMjERGRhoGRiIhIw8BIRESkYWAkIiLSMDASERFpGBiJiErJrl27RPfu3cX5558v6tSpI9q0aSNWrVqlXqVEkRawqMcJY9u2bWLcuHFi+vTp4ptvvhF79uyRz9eqVUs0a9ZM3HXXXeJvf/ubSEtLk89TfDl8+LAYM2aM2LJli3qmUI0aNUSnTp3UFoXTu3dv9ahkWrZsKTIzM9UWlcR//vOfoN+lcePGYs6cOeKkk05Sz1C8S5jAWFBQIN5//33x7rvvikWLFokjR46oV8xOOeUUccstt4jHHntMnHXWWepZige//fabaNGihbxY6P7whz+IzZs3qy0Kp7QKfuPHj5fBkUruwgsvlIV1XaVKlcTSpUvFOeeco56heJcQgXHfvn2ibdu2YuLEieoZ74477jgxdepU0bx5c/UMxRoDY+lgYCxbuO4899xzauuYv/71r+Laa69VW8Whdrh69Wq1VQiBcdmyZaJJkybqGYp3cd/HiIvorbfeGlVQhP3794vbbrtNTJs2TT1DRBQerh39+vULSnPnzlV7BOvQoUNQgQWBtG7dumqLEkFcB0Y0lz755JOyL9FN1apVRXp6ukxudu7cKTp27Ch+/PFH9QwRUelDYBwwYIA499xzZe3xwQcfFJMmTRLVqlVTe1AiiOum1Pnz58smUFN/IkpgPXv2FOedd56oUKGCfA6Bb/jw4XJgh1O5cuVE//79ZZ8jxRabUkuHqSn11FNPlYXJKlWqqGfCu/rqq8WZZ56ptsj2008/ybEKTv/+97/FSy+9pLbMDhw4IAeZVa9enYMAExECY7zq3r07gnZQOuOMMwLr169XewXr27dvwAqEQe9r1KiR2oNiqaCgIPB///d/Qb+PFRjVHuSF8/ghWbWUQH5+vtqDSmLnzp3GY2wFRrUHJau4rjFiQICpb3HChAlyxKkblNSsICis4KmeOWbr1q1yWkcoK1eulP8H5h9haghKjSeccIL4xz/+Ia655hrZfBvKzJkz5Wfo8P4777yz6L2vvPKKeOedd+RUkz/96U9ixIgR4qOPPhK//PKLfN1Wvnx5cfvtt8uagJu9e/eK//73v/Jfp3/+858iIyNDbRWHvw3vwyjf7du3ixNPPFHWNK6//nrZr3v88cerPc1WrFghZs2apbYKoWbeunVr8fvf/15uYxTxoEGDxI4dO+Rxx8hizO8qSY0R3xX54osvvpCtBJUrV5bfHVN0MG8s3Pc2wW+NJq/ly5eLn3/+WR5LfE98J+Q1TAOKBEZRf/bZZzLh+65du1Y0bNhQvoY+pyuvvLLEUyRMNRE03y1YsCBk14IJBpqMHDlSfm+dVQiVffRuxo4dK/OR080331xUC0UeHzZsmHysu+qqq4oGpBw8eFB8+umn8hzAeYtBczj2//rXv8Sf//xnuU8kUNvD3/Ptt9+KvLw8sXv3bnkeY9Qo8jdamkyQT9HihFYq5AHT4Jsrrrii2OAbnCv4roB8uWnTJvnYht8C53645lQcp9GjR4vPP/9c/Prrr/K3wHl/0UUXyTzoJb9gGhuucbrTTjtNtGrVqqhlLScnR4waNUrmyezsbJln8DehGRjXG6+QZzB2A+cNvutXX30ljy9qycjfN954o7HGnRBkeIxTl19+eVBpDcn6QdUe7qzAJkt2zmRlfLVHcdZJEHjttdcC1g9r/D/t9Lvf/S7wxBNPBKwTTr0z2AMPPBD0vgYNGgSsC25g+vTpgfr16xd7rXbt2oEffvgh8Pjjjxd73k5vvfWW+mSzJUuWBKyTLuh99erVU3scg9qadVIErBMhaH89VapUKXDfffcFvvzyy8DRo0fVu4t78803g95nnXzy+6xevTpw6aWXBr0+f/78qGqMVmEnYBU4AjfddFPQ+/RkndhynylTpgSsi616t5l1wQy8+uqrgXPPPdf4WXrCb/Tkk08GtmzZot5ttmzZskC7du0CJ510kvFz9PSXv/wl8N577wUOHDig3h0Z02dGW2NE/qtZs2bQ51lBXO1hhr/B+R4kHH8bjplpH6vQJPOWVTiTrTmmfZDOOeecYp8XihVcA1bhNWAVQI2fZaezzz5bnu/Iizr8fsj7pve4pRkzZqh3B+T/7Xwd+RrH1+TQoUPyb7MK3fLccb5XT7g2DR48OOTvi9/L+T6rYCHz2MaNGwNWgAxYBcmgfZCsQrG8tjmPiQ6/F64JVoHbeM3RE46jVVgNfPLJJwGroKE+ITHEdWA0ZTKkhx9+2PViHQ1cIK1am/H/cktWjUieRKbv4RYYEZRPP/30oNfswGjVLownx2WXXaY+2eyNN94Ieg+SVdpVexRCcLFqn8Z93ZJV+pOFDNPf6RYYrRpo4Kyzzgp6DSmawIj/261Z3S3he1i1ctcTEhck00UkXMJvZdXq1acUZ5Wcje8Jlzp16hRVfjZ9VqIFRqt25DkQTZ06VX1iMBSCHnnkEeP7QqU//vGPxX5PPwMj8maPHj3CBkRnwvUA+dfELTCi4H/xxRcHvWZKODdNwRF5dO7cuREfH6SBAwdGlcdjJa4DI0ovpoOM9Oijj8oaWEnhpGjatKnx/wiX0tPTA3PmzFGfdIxbYERpzfk8kh0YEaDxmc7XK1asGNi2bZv69GB///vfg96DUiEysW337t2BG264IWg/Lwn//4gRI9QnHeMWGO+9996g5+0UaWD87bff5AUv0ouHnVA4cAZHlJ5vueUW4/5e0vnnnx/48ccf1acV2rBhQyAjI8O4f7iEWu4zzzyjPsk702clUmDs2rWrLHiZXjOlzMzMwE8//aQ+tTjU5qPJI2lpabK2ZgcCvwIjCqlPPfVU0L5eE4KcqfXCLTC2bNky6Hm3hOP4zjvvqE88ZtasWVEFRTvhepEo4jowolnEdIDthEz90EMPBbKysgJbt26VF/9ISiW4YLZt29b42QgGdevWDVx55ZUyE5566qnGAT1ornQ2hZkCI5op3E5cOzC6vRdpyJAh8nUnBFPT/qjR6hfIQYMGyePl3A8BFCdu8+bNZbDCd8Hf7tzv5JNPDroomQIj/o9QTSyRBsaJEycavw+CSa1atWTz0tVXXy1/B1MT0XHHHRf4+uuv1acVWrFihXFf/EZoYkOQev3112VzEf5u535IzgvHjTfeaNwPTapo2n3ppZcC/fv3lzUUUzMfnlu1apX6NG+cn4GE4LFp0yb5W3lJtlgExuOPP77oMS64KBS6NfPZCU3PTvgtTPsi4bgiX+FcRsHFdA4j4ffBtQNdJMhLOA9MrTtI+J543U64/ti8BsYvvvjCmK+RatSoETjzzDNlqwvOY7fvjCZ7Z6HPFBiRr3G+2Ns4P1EgcftcJBSwnJ9tKljjfMd3RODFOdOrVy/ZNWEKoMib4bo34kVcB0Y0F1x33XVBB9iZ8OOccsopgQsuuCDQunVr2UTj/FFNcAExlVhxYqAdfc+ePWrPgKyxvfDCC0H7IiEz6NyCm53QbIuTedq0aTJ9+OGHRf8XTiDTCYOMh1KmE2pyzn2RUNu2IXieeOKJQfuccMIJgfHjxwd+/fVXtWfhvsOGDQvaF+nuu+9WexUyBUY9od8IfXj234mLWm5urufAuH//fvlbOPdDsENfC0YN2gUh7Pu///1PvubcHyc5ap623r17B+2D1KdPn6BCznfffSe/l3Pfhg0bqj0Csonc+ToSLsoIwjp8jzFjxgQFR+RhNIlHQn+/nXBBwkUV/dheki0WgREJfzea99Hysnz5cllw6tatm2vNBBddHc6b8847z7gvLsSzZ8+W+Rv74Xuged20L1p0UFDANQfnABLGMpj2RWuVvQ+SfrH3EhjRSoWCtnM/JLwfwXnfvn0yb6PAj+9suibgGCHA6kyB0U44l0aOHBlYunSpTDhfUBA07YuE30Jn6jfHOe6cIYBzCNdE575IoZrD40lcB0bARdRLcHQmlIqQgTEIxBRQ4J577gl6H0pXGOThBp/pfA8uknpwCRUY0XwSrlaLpg/n+3CS79q1S+1RCMHfNBgFpW4EDZvpO+NEGzdunNojGIIHLlrO96HJ0BYqMN5xxx2yBm/iNTBikJBzH6QuXbqoPYLhgmy6qKIZyPbggw8GvY7kvBDY0FSGmh5+F9ROkdBSYQfRnJwc4+c1a9ZMvu6E9912223yM6+66ir5ecjjkV40TP9npMkWq8CIc8XUX4YClWl/JPSX2ebNm2dsiUEQ0PfTmZr6UVDJzs5WexSKZrqGl8CIAqJzHyTUvPT9bAiS1157rfE9yDv68XMLjPht16xZo/Y6BuezW5Du16+f2quQaR/8vabrGfI4vgvyOLp68D1RuJ88ebLaI77FfWAEXGDxI+lNL14TSjnOHxjQP2kqheGkCRW4Fi5cGHThxf+hZzq3wIhmWbsvIxT0iznfi5MfpUcdSp6m0Xz4f2woKTdp0iTkPiYoPaOZyPk+DMSxuQVG9ME5a146L4ERhRnTyFk0L7kNPADUHHEyOt+HUrfNLTC++OKLao/iUADBxcntt0PLg+nzkE9QCzLB8bFrBdEy/Z+RJlssAiOaN92OKQqBpvcgoRZvc+s7Q9eBGxSSTO95//331R6FyiowtmnTJmgfJP2YOeHcR6Hd+R50J6AVxuYWGJ1/mw3577HHHjO+p0OHDmqvQqZ9UABxG+th53EvrXfxJiHux4h5aU888YScJ9OtWzc5V8aqEapXQ7OCh1wJpGvXrsXmaGEFfOsCq7aOsX5oueAvVsM3JdxvDXP1dHgO/084uE+bVZtTW+4wx8/JChTCKmmqrUJW8AqaMwWYk2TLy8uT8/KcsHKQ6e+zk3XxMc6FW7dunXrkDnMnrZNYbUXHCujGJfzwvTHX0PSdkTAf0Sr9q72PsUrG6pEQ1sVcPSoOeeTyyy8Xffr0ER9//LHMI/bvjXl1br8d5oli7pYT5ubh8+6++27x9ttvyzmf9jxNHB98plUrl9upqGnTpq7HFLcga9y4sdoywwpKmG9sYtVS1KNgVs1fzpl0JquwpvYoW5g76GTVFoVVoFNbwTAHGHnJCdcdzHkMBeexFTDVVnHIfzgeXtjzcHU4r+rXry+X3MSc5aysLHk7OVyv7DzuvF4mBBUgEwpqDCjNDR061PM0C9QO9Wr86NGjjfuhkxq1s1DJ9D603dtMNUbUKlFy9gKlOJQEnZ+BGpwOfWLOfZD0WgoGdJhq2uh4N/1tejI1pWJqgc1UY8TnfvTRR2oPMy81xu3bt8tt5z7Rfm+U0m34HdBs5dxHT/b/g2ZpDL5Cn2YoGBxl+hw74Tshb6EWiZoZBvZgWksq1xidfdZOpjyCZNcY0Qxoeh2pJMfVVlY1RvTtO/e56KKLXJt+bZ07dw56H9LixYvVHuYaI35XnE9u8H7ne5CcNUaM/DXtpyc7j+N6h8FBzj72RJGAoVzIFRxOPvlkYQUgWYtEjQirRWA1GesipvYqDrVDLOhrVe3ltl571FnVflnaCZVMUMMpLSjF4YanTiiJYdUKG1bOccrMzCxW0sbfbaoZWxcO49+mJyt/qL2PwR0HwsH3Lyn8TlitxCna7/3999+rR4Wl7169eoVsdbD/H9RKUBPFDZTRcnH//ffLFX+ckBdbhrh1E74T8hZqkajFYwWgyy67TN6jD4tOlxaU6lEjwd/rJSWyAwcOqEfFNWjQIK5r4miFcEJexHUtFLf1bNG644fHH39cXHrppWrLzM7jqMmilQQrDKFlwCpEu15z45GnwGhfcOKVVSKSzYdPP/20WLJkibzomU4MLJWEZcQAP148u+uuu2Twd8Jyc4AAaTohnnnmmWInWLz/dm4QSEwBrjQgb2CpMeQFqzQv75fnhVWil4UR5DXnzWitkrK8ryGaY63SsqfmI1xEEMRwwcGygPj8kqpYsaIM/LVr1/aUEhkKLSb4LZKR29/lVkAoDXZFAbA8HW651b59e1lI9Fr4QMESTa2PPvqo/LxEEHatVAST/Px8eaKjf8fUf1MWcNFHf5ET+g5MfV86nDA33HBDURDRPf/887KvDyV2rKvphDUN0c8Yqeuuu05ccskl8jEyjnNtSFws0TeGtSe9QGbEWoNYi1B3xx13yLUc33jjDVmL0SGQbty4sVh/Fy68KOU5a7RYL/KCCy5QW96hfxdrxsJbb70la+E65BOsnYjv7ga/T7i1UnNzc2WwcK7DiX4YrLEZKax7et9996mtY1ArRWEKfSOzZ8+W/cteLjQIKliH05kXUdNEv+/ixYtl4MWFxEuJHhcZ3LGhS5cu6pnwTBcmtBZEs1Yq1nNF7RW1WR36puzCpAn65Uz3J5wyZUrReqK4hpiCMPpesZ6pG9xZx5lHAMcTNWPkdbdztTQKVejDj/TuGvibnecs8jVathBYALVDZ8sLWrqQB9En5waF3pdfflltHYP32f2jKLQhH+tQccC1FP2YJsj/pv5NnC8Yn4Fghvxk/4bYxnq28+bNE19++aX82/Q+fDcI7AMHDgy6bsUlBEY3GG2EOTV68ouVAZCzg9Lw4cPVHqG5zTm05/ehD8T0ut5XGK2S9jHaTPPtMPcM/SeYDuF8DVM3rEyr3l0I/TCY4+nc1zn3MhpufYwff/yx2sPMSx8j5gZiPp5zHxzbsmQVSOQcL0wXwOhWrI3r/A52Mk02N8HIYKwXidF/GLFrmmuJhBG3kTB9BuZslubKN/idQsHf43wPUmn0MaLfzfQ+KzDK15GP0Kdl2gf53o1VMJNTM5xJn3IFZdXHiOldzn1OO+20sCt5mSbYoz/vm2++UXuUbh8jphTp137nak86HKuxY8fK8xNzI9E3b/pMzKfW533Gq7jtY8SNPk0wCs1LM+iMGTPUo+Iw2g3cRrxNnjxZPYo91HqdUBvBqvimfi7UwpxNeLjrhP0360yl/HiC721qSkYJtSyhVIu7GXTu3FnegQAjgdFnZbJmzRr1KDTU4PFboi8Rx/3DDz801ui81Cz9hrzmBjVBtILECka04o4qJririRs0g6MVxZlC1YxLk31HER1GYKPm5gZ97vPnz1dbx1gFN1kjjDWcq7gL0NChQ8XChQvF4MGD1SvFoSUMdzCJdyEDIw64fVHFBTeaJsZooRnFdPFAswGaQUP1x3zwwQeyem9ilWbkv2jeMAVf9BM5+490yLzoUMZtXJDQlNijR4+QF5BooWnLqgWqrUJoxrBqksUG4QD6FdGc64QAYyoEoLkFTW5u0IyEZmv777z33nvFs88+K5tP/IC+MtNFD8cZt+ZBk6UJmkFxGyAEInxvTB1B0zmG4wMGMKFJCk3S9t+G6RvoA3GyanAyoXk9lOnTp8tmQfvz8H+jacx02zMESTR7uTVrxQq6SEwFEVyw0TfkHDiBpkAMditLXqZkoa/YWRgEXKBNg1wAXRFoQtcT/j7cqs6LkvaTobnTCfn5kUceMU77QkUATeym1zAgp6xu7YS8avdr4nZaOI/sPI7uFFw/TQO47EFquNWeide+yZhSNceQMD0CyW/XX3+9sTqOYfRYVQQrt6CZyoZl3HCbE7dqPJJ1sqi9C2/XZNoHt7nR97Ph/zI176CZNNwE/2iaUgGr8Dg/y5SszKreEQxDpk3vQfON3gxjw8RcrMhiZeCg92DtUltZNqUCmpacS6chWSesXEfXBEPETc1r9gR/6yIY9BoS3oP844SmaetCZnyPvV4q1og0vX7JJZcYFzrASjnID8799SXavHC+HynaplT8Jm5TL3BssBas3TyJRR6waAR+a9P+SH5M1wCcp2iCdu6DvIvFL3CrJRuuYVjsw7SwBz4Dy7vp3JpScQ1w46Up1W0JQSQcZyecZ6bvjIQlHXWlPV0DXQs4blhtyrQPFlhA07QT1ic25Q9MVTGdE/HGU2CMFdySxnlgo034kdBvqcMPjhVgTPujLRxLxmFxYSSsiGO6mCFhOS/9xy7NwIh2fawQ4vw8PaGgYLrLhw7f3xToMMcRmRv9mfg7cScLnMjO/ZCwyoVeECnrwAhYjcZ0gqFvBYUg9CXje+PERYHGuR8S/kb97iSYi2naD3MbsdQb1trFPQKx6Df+D9Nxw4LUuMAB1op0K4xhkXN8P3we5s6ij7tOnTrGfSO9w4bpM6INjODWLx8q4e8zPe9XYER/+4ABA4z7IVm1YBmssB4rgrnpt0TCvVDxWToESrf+YJzP6EvDZ2LlI5uXwAgYy2AqwCGhwIoxBFZt2LWwgtSiRQv1aceU1TxGXIdM8y9xbuIcQYEDeRyFRcy3NI1rQCqNsQ1+iOvACLhJr+nCGGnCQsOoLTjhJENgMb3HS8LFVA8WUJqBEdxqznbCiReqYxywbBROENP7vaT09PSgW1/5ERhRIwi10HG4hICVpd39AHCRcgv+XhLyywcffKA+rRAuCG4XXS8Jd1SINH+YPqckgRETzPE9TJ9rSgjwWEfW9JpfgdGGmla0xx8LiJtgeUEs7mB6j52wTNuCBQvUO7wHRtTEcLsr575eE64n69atU592TFlO8DctVRlJClXTjjdxO/jG1q5dOznEFx3t0bAu1LJT+JNPPpFt304Y9o0BHW6TZ0M5/fTT5WAgfXpEWcAxCAV9nuiEDwXfFZ3imFQeKfQzDx8+vGi4uZ/wf6Nf09nX6gXyDPrBnEte4e/AdBr0H0YKcx4xT/aWW25RzxS65557ZN9lNPD7oc/X61SesoI+PfQloV/ai0GDBqlHsYeBUpj7Gyn0v9v9z07od0W/eqhrD/omvQ7C0qHvbsiQIbK/DteoSGBwGPq1sRSbnx577DHZD4rxDJHCJH/8RglDBci4h1vAoMqOkpKXkiFqChgWjekdXoYHY9FsrGAfrsSM/xu1J5RQnTVFW2nXGKG2YUFvO+GWTl6h1nznnXd6qj1aF8rApZdeGnRbGZsfNUYb+jHQDBPqnnp2QvMXmriw4HsoKMWj/9DURORM6OtEH6B+U1oT9H1iP+Q/0+foCb8BbpOGvBcN02eWpMZo++qrr+S5Y2rqw7FHXvzss8/kvvFSY7ThTvFYTjFcKxDOcyuQup7DOpxf+Jvd8t3999+v9vReY7Sh5ti3b1/Z8hTuuoZ8iu8calpHWdYYAc3Nb7/9trxXZbhjjOOF/xvXw1iMUSmJsBP84wlGg2ERa5TQMKLSymxi5cqV6tXC0VBYhMDKHHJpNAyLRo3DK+vHK/psDKvHZ2PEGkpI+GwM27/66qvliEOMbnUrOWGqiHM6BUqfqFWYaq1eYNLwt99+q7aKw6jBSGrU+MkxYtI6IWRtedGiRXKUIUZ0WhlZjti98sorZU0LI2PdPhtD9Z3D4q2TW9x8880hS7P4HceNGyeH++vwW2FxhFCsi6z8XdACgGOM74xFAFAjRk2wWbNmcjQrfnvTqGYnDB+3LrRytDOOx9dffy2fx7QY5CV8JvITjgU+00ttCksU4jsiH2GIPb4fJs4jD2ACNxaCwKhrTKouyfJlWOzcCS0HGInrdTUfN1iYGqOzrQBXNLweeQMjKvG97dYDLMiA39IJI4PtVhgr+MglwZxwPO1FAEwwetSZRwAjHq2CptoKZgUBuVCDnUesgoKc7oDfDtcFjELGgtwYheql9oPzBQtOYAUX1C537twpvxfyOBbJwOhte3EPjGrHwgM65Gv8JqFG2dqfj2sH8gxGouK44ZjjOOH7Im/jO4fKL2PHjpXniA75DpP13f5/jDw21ebsv80ExwDHGHkcizAgv+A5HGP8f8gjyCv4DOQD1JATSUIFRiIiorIW932MREREfmJgJCIi0jAwEhERaRgYiYiINAyMREREGgZGIiIiDQMjERGRhoGRiIhIw8BIRESkYWAkIiLSMDASERFpGBiJiIg0DIxEREQaBkYiIiINAyMREZGGgZGIiEjDwEhERKRhYCQiItIwMBIREWkYGImIiDQMjERERBoGRiIioiJC/D+Cf3kFEsblogAAAABJRU5ErkJggg==;" vertex="1" parent="1">
                    <mxGeometry x="-1532.85" y="450.57" width="75.25" height="38.29" as="geometry"/>
                </mxCell>
                <mxCell id="57" value="&lt;font style=&quot;font-size: 18px;&quot;&gt;Server&lt;/font&gt;" style="text;html=1;align=center;verticalAlign=middle;resizable=0;points=[];autosize=1;strokeColor=none;fillColor=none;container=0;" vertex="1" parent="1">
                    <mxGeometry x="-1190" y="180" width="80" height="40" as="geometry"/>
                </mxCell>
                <mxCell id="61" value="SupaBase Storage &lt;br&gt;Upload Request" style="text;html=1;align=center;verticalAlign=middle;resizable=0;points=[];autosize=1;strokeColor=none;fillColor=none;container=0;" vertex="1" parent="1">
                    <mxGeometry x="-840" y="332" width="120" height="40" as="geometry"/>
                </mxCell>
                <mxCell id="62" value="" style="endArrow=none;html=1;" edge="1" parent="1">
                    <mxGeometry width="50" height="50" relative="1" as="geometry">
                        <mxPoint x="-710" y="332" as="sourcePoint"/>
                        <mxPoint x="-840" y="332" as="targetPoint"/>
                    </mxGeometry>
                </mxCell>
                <mxCell id="65" value="uploads&lt;br&gt;Table&lt;br&gt;Insertion" style="text;html=1;align=center;verticalAlign=middle;resizable=0;points=[];autosize=1;strokeColor=none;fillColor=none;container=0;" vertex="1" parent="1">
                    <mxGeometry x="-850" y="460" width="70" height="60" as="geometry"/>
                </mxCell>
                <mxCell id="66" value="" style="endArrow=classic;html=1;entryX=0.114;entryY=0.755;entryDx=0;entryDy=0;entryPerimeter=0;" edge="1" parent="1" target="37">
                    <mxGeometry width="50" height="50" relative="1" as="geometry">
                        <mxPoint x="-1721" y="340" as="sourcePoint"/>
                        <mxPoint x="-1353.5" y="341" as="targetPoint"/>
                    </mxGeometry>
                </mxCell>
                <mxCell id="68" value="" style="endArrow=classic;startArrow=classic;html=1;" edge="1" parent="1">
                    <mxGeometry width="50" height="50" relative="1" as="geometry">
                        <mxPoint x="-1295.8400000000001" y="430" as="sourcePoint"/>
                        <mxPoint x="-1295.8400000000001" y="360" as="targetPoint"/>
                    </mxGeometry>
                </mxCell>
                <mxCell id="69" value="User&lt;br&gt;Authorisation" style="text;html=1;align=center;verticalAlign=middle;resizable=0;points=[];autosize=1;strokeColor=none;fillColor=none;rotation=0;container=0;" vertex="1" parent="1">
                    <mxGeometry x="-1182.5" y="302" width="90" height="40" as="geometry"/>
                </mxCell>
                <mxCell id="70" value="" style="endArrow=classic;html=1;" edge="1" parent="1">
                    <mxGeometry width="50" height="50" relative="1" as="geometry">
                        <mxPoint x="-1250.5" y="342" as="sourcePoint"/>
                        <mxPoint x="-942.5" y="340" as="targetPoint"/>
                    </mxGeometry>
                </mxCell>
                <mxCell id="76" value="" style="endArrow=classic;html=1;" edge="1" parent="1">
                    <mxGeometry width="50" height="50" relative="1" as="geometry">
                        <mxPoint x="-1255.5" y="510.00000000000006" as="sourcePoint"/>
                        <mxPoint x="-1142.5" y="510.00000000000006" as="targetPoint"/>
                    </mxGeometry>
                </mxCell>
                <mxCell id="77" value="HTTP Request" style="text;html=1;align=center;verticalAlign=middle;resizable=0;points=[];autosize=1;strokeColor=none;fillColor=none;container=0;" vertex="1" parent="1">
                    <mxGeometry x="-1042.5" y="420.57" width="100" height="30" as="geometry"/>
                </mxCell>
                <mxCell id="78" value="HTTP Response" style="text;html=1;align=center;verticalAlign=middle;resizable=0;points=[];autosize=1;strokeColor=none;fillColor=none;container=0;" vertex="1" parent="1">
                    <mxGeometry x="-1052.6" y="520" width="110" height="30" as="geometry"/>
                </mxCell>
                <mxCell id="79" value="CRUD Operation" style="text;html=1;align=center;verticalAlign=middle;resizable=0;points=[];autosize=1;strokeColor=none;fillColor=none;container=0;" vertex="1" parent="1">
                    <mxGeometry x="-1252.5" y="420.57" width="110" height="30" as="geometry"/>
                </mxCell>
                <mxCell id="80" value="CRUD Response" style="text;html=1;align=center;verticalAlign=middle;resizable=0;points=[];autosize=1;strokeColor=none;fillColor=none;container=0;" vertex="1" parent="1">
                    <mxGeometry x="-1242.5" y="520" width="120" height="30" as="geometry"/>
                </mxCell>
                <mxCell id="81" value="Vercel Serverless&lt;br&gt;Functions&lt;br&gt;&lt;br&gt;(Originally&lt;br&gt;Express.js Server)" style="text;html=1;align=center;verticalAlign=middle;resizable=0;points=[];autosize=1;strokeColor=none;fillColor=none;container=0;" vertex="1" parent="1">
                    <mxGeometry x="-1152.85" y="488.86" width="120" height="90" as="geometry"/>
                </mxCell>
                <mxCell id="82" value="" style="shape=image;verticalLabelPosition=bottom;labelBackgroundColor=default;verticalAlign=top;aspect=fixed;imageAspect=0;image=data:image/png,iVBORw0KGgoAAAANSUhEUgAAAcYAAADnCAYAAACE5fYOAAAAAXNSR0IArs4c6QAAAARnQU1BAACxjwv8YQUAAAAJcEhZcwAADsMAAA7DAcdvqGQAAC58SURBVHhe7d0HeBRl/gfwN3QEg8ppTkUOpBgEu5ynx/3xPA+7niIqemA5EUQs2DjhEFGwUAQUURARwRPkKBaqoBiaVAUkBOlCEEGjhBpp+5/vm3fCm9l3dmc3yWz7fp7nfdjZnV02s+/M7+2TFrAIIiIiksqpf4mIiMjCwEhERKRhYCQiItIwMBIREWk8BcbDhw/LRP7D2Cgc+yNHjqhnyE9Hjx6Vxx//kv/s488xgrGB604qXvvDjkrdunWryM/PF+XKlRN169YVVatWVa+QHzZv3iz27t0rKlasKOrXry/Kly+vXiE/bNiwQRw4cEBUqVJFHn/y19q1a8XBgwdFtWrV5PWH/IPjjvyP4Jieni5q166tXkl+IWuMeXl5MigCSm44SOSf3NxcGRTh0KFDIicnRz4mf6xfv14GRSgoKBBr1qyRj8kfq1atkhdn2Ldvnywkkn9QKLFbqnbv3i127NghH6cC9jESERFpQgbGmjVriho1asjHaEqtV6+efEz+qFWrlqhevbp8jKbURo0aycfkDzSd2l0HaErNzMyUj8kfTZo0EZUqVZKP0ZRap04d+Zj80bBhw6KuGzSlZmRkyMepwNPKN3bna4UKFeS/5B/8PGjOSEtLY/9iDKALAQkFQyTyl338kfdxDpC/cO3BNSjVrv1cEo6IiEjDIjAREZGGgZGIiEjDwEhERKRhYCQiItIwMBIREWkYGImIiDQMjERERBoGRiIiIg0DIxERkYaBkYiISMPASEREpGFgJCIi0jAwEhERaRgYiYiINAyMREREGgZGIiIiDQMjERGRhoGRiIhIw8BIRESkYWAkIiLSMDASERFpGBiJiIg0DIxEMbZp0yb1iIjiAQMjUQxlZ2eLdu3aqS0iigcMjEQxsmfPHnH77beLrKwsMWrUKPUsEcUaAyNRjHz66aciJydHHD58WHTs2FHk5uaqV4golhgYiWKgoKBA9OzZUxw9elRu79+/X4wYMUI+JqLYYmAk8hmC4SuvvCLWrl2rnhEiEAiIAQMGiB07dqhniChWGBiJfIZRqEOGDFFbx+zatUt06NBBHDlyRD1DRLHAwEjkM9QMd+7cqbaKmzVrlli6dKnaIqJYSAugDYeIfDF//nzRvHnzkLXCZs2aiblz56otIvIba4xEPsGAm169eoVtKp03bx6nbxDFEAMjkU+WLVsmPv/8c7UV2qBBg8TevXvVFhH5iYGRyAcYWNO2bVtx6NAh9Uxoy5cvF2PGjFFbROQnBkYiHwwfPlxs3LhRbYWHKR0PPPCA2LJli3qGiPzCwEjkA9P0DC/69OmjHhGRXxgYicoQan6PPvpo1HfQGDdunNi2bZvaIiI/cLoGURnCnMTLLrvMc9+iySWXXCLmzJkjKlWqpJ4horLEGiNRGcLo0pIERVi8eLH47LPP1BYRlTXWGInKyJIlS2RtrzROMdQ6sTgAEZU91hiJykB+fr5o3759qQRFWLBgQdQDeIgoMikRGHG/Oy7MHBsIDDj+9u2VUsW0adPEihUr1FbpwKo5kd59A8c9FY9/vMB1B8efDXOxgWOPFKmkb0rFPLDdu3eL8uXLi3r16nEAg88wGnPfvn3yuDdo0ECkpaWpV5IXaotoQv3uu+/UM6WjXLly4vnnnxfdunVTz4S3fv16uRRd1apVZf4n/yAo4vijj7l69eqiTp066hXyw4EDB+T1B4XCGjVqiDPOOEO9El5S1xhRukZQBGRS/f53VPY2b94sgyIcPHhQZGdny8fJDCfhyy+/XOpBEfDZvXv3Flu3blXPhLZmzRoZFAEXCVykyT85OTlFA6+wvF9ubq58TP7YsGFDUUsJCqt5eXnysRfsYyQqRT/++KN477331FbpQ4Dr3LlzVM1DRORNUgfGjIwMkZ6eLh+jKbVhw4byMfkDTUfVqlWTj9GU2rhxY/k4maFGt337drVVNmbOnOmp/zIzM1NUqVJFPkZTav369eVj8kejRo1ExYoV5WM0pdaqVUs+Jn+g6wDdD4Cm1Jo1a8rHXqTEdA2UrtG3heBI/kL2QjM2MqidSZMVAtY111zjy0Cviy++WE4HCQdNSUipcPzjEfICzgFce1Khfz3e2C0rFSpUkP96lRJnCg4Kg2Js4GKA45/sF2VcAAcOHOhLUASsqDNy5Ei15Q7HPRWOf7zCdQfHn0ExNnDskSLFCf5EpWDVqlXinHPOUVv+uPDCC8XChQuLmuuIqHSwGElUQr/88oto0aKF2vIP+hnfeOMNtUVEpYWBkaiE3n333TIfcGOCZluMUI32zh1EZMbASFQC+/fvF6+99praio3XX39dPSKi0sDASBQl1NieeuqpmN9l/+233+bkcaJSxMBIFKVvv/22TCfze4VVVVq1alXi21sRUSEGRqIo9e/fv2jJu1j7+uuvxaxZs9QWEZUEp2sQRWH69Oni2muvjau7Jpx77rmlfkcPolTEGiNRhHbt2iW6d+8ed7cSWrlypRg8eLDaIqJoMTASRQg3Df7mm2/UVnx59dVX5ULmRBQ9BkaiCPz888+iXbt2vi39Finc6uudd95RW0QUDQZGIo/QdNq3b1/xww8/qGfiD77jiy++WCb3gyRKFQyMRB7hptejRo1SW/ELiw48++yzvGcjUZQYGIk8QNPpQw89lDD9dzNmzGCtkShKnK5B5MHcuXNF8+bN424kaihnn322yM7OVltE5BVrjEQe9OnTJ6GCIqxevdrTPRuJqDjWGInCmD17trjiiivUVmLBPSIx6Z83yiXyjjVGohB27twpp2ckKqzn+sorr6gtIvKCgZEohA8//FBs3LhRbSWmnj17JvzfQOQnBkYiF3l5eXLeYqL3NhQUFIihQ4eqLSIKh32MRAaYntG+ffukWUWmcuXKsq/xrLPOUs8QkRvWGIkM1qxZIyZMmKC2Et9vv/0m7r33XvkvEYXGwEhk8MILL8i7aCQT1BizsrLUFhG5YVMqkcOUKVPEDTfckPB9iyYXXnihWLZsmdoiIhPWGIk0uCM/FuFO1vIi7vQ/YMAAtUVEJgyMRBos/Yb7LSazIUOGyBG3RGTGwEikYIFwDFBJdpjT+Prrr6stInJiYCRSBg8enBJ3vz969Kic9I9VcYgoGAMjkWXPnj1i2LBhais1DBw4UD0iIh0DI6W8Q4cOycn8P/30k3omNYwZM4b3bCQy4HQNSnlffvmlvHtGKp4KtWrVEhs2bBCVKlVSzxARa4yU8pJhPdRo5ebmivHjx6stIgLWGCmlTZ06VVx33XVqKzU1adJEropTrhzLyUTAM4FS1o4dO8TDDz+stlLXqlWreM9GIg0DI6WsyZMni82bN6ut1NavXz+xbt06tUWU2hgYKSX9+uuvomvXrnJOHxUejzfffFNtEaU2BkZKObjXYufOncXOnTvVM4ShBgiMWEuVKNUxMFLKQfPpRx99pLbIhjv9P/XUU7xnI6U8BkZKKYcPHxZdunQR+fn56hnSLVy4MOkXUScKh9M1KKVgwA3utUjuateuLb7//nu1RZR6WGOklIGl3zgtIbwtW7bwno2U0jwFRjQ/IZH/UKHHsceAESqZjz/+WMybN09tUShDhw4V+/fvV1uxg1HDyP9s2IoNXHdS8doftil169atsj8Gq2LUrVtXVK1aVb1CfsBAkb1794qKFSuK+vXri/Lly6tXKBJoGmzatGnKLRReEt26dRO9evVSW7Gxdu1acfDgQVGtWjV5/SH/4LhjHV0Ex/T0dNnEnipC1hhxl297kAJKbjhI5B+sY4mgCGgGzMnJkY8pcu+99x6DYoR69+4tVq5cqbb8hxV5cHGGffv2cTEGn6FQYrdU7d69W64UlSrYx0hJDxdV3ISYIjdo0CD1iCh1hAyMNWvWFDVq1JCP0ZRar149+Zj8gVsCVa9eXT5GU2qjRo3kY/IO/SOtW7dmbTFKo0ePjtmkfyxubt8OC02pderUkY/JHw0bNizqukFTakZGhnycCjxN17A7XytUqCD/Jf/g50FzRlpaGvsXo5CVlSVatGhR1CRHkWvcuLFYvHixOO6449Qz/kEXDhLyPs4B8heuPbgGpdq131NTKg4Kg2Js4GKAY8+gGB3ca5FBsWRwl/+JEyeqLX+hpQr5n0ExNnDdScVrPyf4U9J6//33RZs2bdQWlURmZqbIzs7mPRspJTCXU1LCiOqXXnpJbVFJrVmzRjz33HNqiyi5MTBSUpo0aZJYvXq12qLSMGzYME7ZopTAwEhJB0uaPf3002qLSgtu08V7NlIqYGCkpIJRdBhwgxvvUunCcIT+/fuLZcuWqWeIkhMDIyUVrBb0wQcfqC0qCz169JArMRElKwZGShqoLXbs2FH88ssv6hkqC7NnzxZLly5VW0TJh9M1KGlMmDBB3HrrrWqLytJJJ50ktm3bJqpUqaKeIUoerDFS0uC6nv5Brfytt95SW0TJhYGRkgL6FefOnau2yA+4ZyNXFaJkxMBICQ/TMzp16qS2yC+Y9N+lSxe1RZQ8GBgp4Y0aNYrTM2IEt/OK1d03iMoKAyMlNNxOql+/fmqL/IY777z22mtqiyg5MDBSwkL/VocOHUR+fr56hmJhzJgxYtGiRWqLKPExMFLCWrFihZg+fbraolhBAaVdu3aioKBAPUOU2BgYKSFh5ZVnn31W7N+/Xz1DsYR7Nk6dOlVtESU2TvCnhDR69GjRtm1btUXxICMjQ/zwww+8ZyMlPOZgSji7du0Sr776qtqieLFjxw7RrVs3udg4USJjYKSEg9ri8uXL1RbFEwzE2b59u9oiSkxsSqWEsmnTJnHBBRdwJGoca9++PZeLo4TGGiMlDJThMGeRQTG+Yam4BQsWqC2ixMMaIyUMrG5Tp04dsXv3bvUMxaubbrpJTJo0SaSlpalniBIHa4yUEDBXrmXLlgyKCWLGjBkiKytLbRElFtYYKSGMHz9etGrVSm1RIqhZs6a8Z2PlypXVM0SJgTVGSghYrJoSS15enhg2bJjaIkocrDFS3Hv33XfFfffdp7YokaBPGLenYq2REglrjBTXtm7dKrp27aq2KNFs3rxZPPzww2qLKDEwMFJcw4RxrKhCiWvs2LFywXeiRMHASHFr7dq1onfv3lxiLMHt2bNHDBw4UG0RxT8GRopLmJ7RvXt3Ts9IEiNHjhRz5sxRW0TxjYNvKC5hwMbFF18s9u3bp56hRNe0aVMxe/ZsUa1aNfUMUXxijZHiDu61+MADDzAoJhn0M86cOVNtEcUvBkaKOyNGjBBz585VW5Qs0DzesWNHsXfvXvUMUXxiYKS4UlBQwDszJDHckqpv374cUEVxjX2MREREGtYYiYiINAyMREREGgZGIiIiDQMjERGRhoGRiIhIw8BIRESkSYnAePjwYXHkyBG1RX7CbCAc/6NHj6pnyE847jz+sYPrDo4/Z8XFBo49UqSSfh7jli1b5ELU5cuXF/Xq1ROVKlVSr5AfNm3aJJd2w3Fv0KCBSEtLU6+QH9avXy8XTahatarM/+QfBEUcfyxxWL16dXnTZvLPgQMH5PUHhcIaNWqIM844Q70SXlLXGHEfP/vuDMikuI0R+Qc3qbXXO8VyYNnZ2fIx+QMLsSMoAi4SuEiTf3JycmRQBCyDl5ubKx+TPzZs2FDUUpKfny/y8vLkYy/Yx0hERKRJ6sCYkZEh0tPT5WM0pTZs2FA+Jn+g6ci+xRCaUhs3biwfkz8yMzNFlSpV5GM0pdavX18+Jn80atRIVKxYUT5GU2qtWrXkY/IHug7KlSsMcWhKrVmzpnzsRUqslYrOV/RtITiSv5C90IyNDGpnUvIPmpKQePxjA3kf5wCuPexf95898KZChQryX6+4iDgREZGGRUgiIiINAyMREZGGgZGIiEjDwEhERKRhYCQiItIwMBIREWkYGImIiDQMjERERBoGRiIiIg0DIxERkYaBkYiISMPASEREpGFgJCIi0jAwEhERaRgYiYiINAyMREREGgZGIiIiDQMjERGRhoGRiIhIw8BIRESkYWAkIiLSMDASERFpGBiJiErJrl27RPfu3cX5558v6tSpI9q0aSNWrVqlXqVEkRawqMcJY9u2bWLcuHFi+vTp4ptvvhF79uyRz9eqVUs0a9ZM3HXXXeJvf/ubSEtLk89TfDl8+LAYM2aM2LJli3qmUI0aNUSnTp3UFoXTu3dv9ahkWrZsKTIzM9UWlcR//vOfoN+lcePGYs6cOeKkk05Sz1C8S5jAWFBQIN5//33x7rvvikWLFokjR46oV8xOOeUUccstt4jHHntMnHXWWepZige//fabaNGihbxY6P7whz+IzZs3qy0Kp7QKfuPHj5fBkUruwgsvlIV1XaVKlcTSpUvFOeeco56heJcQgXHfvn2ibdu2YuLEieoZ74477jgxdepU0bx5c/UMxRoDY+lgYCxbuO4899xzauuYv/71r+Laa69VW8Whdrh69Wq1VQiBcdmyZaJJkybqGYp3cd/HiIvorbfeGlVQhP3794vbbrtNTJs2TT1DRBQerh39+vULSnPnzlV7BOvQoUNQgQWBtG7dumqLEkFcB0Y0lz755JOyL9FN1apVRXp6ukxudu7cKTp27Ch+/PFH9QwRUelDYBwwYIA499xzZe3xwQcfFJMmTRLVqlVTe1AiiOum1Pnz58smUFN/IkpgPXv2FOedd56oUKGCfA6Bb/jw4XJgh1O5cuVE//79ZZ8jxRabUkuHqSn11FNPlYXJKlWqqGfCu/rqq8WZZ56ptsj2008/ybEKTv/+97/FSy+9pLbMDhw4IAeZVa9enYMAExECY7zq3r07gnZQOuOMMwLr169XewXr27dvwAqEQe9r1KiR2oNiqaCgIPB///d/Qb+PFRjVHuSF8/ghWbWUQH5+vtqDSmLnzp3GY2wFRrUHJau4rjFiQICpb3HChAlyxKkblNSsICis4KmeOWbr1q1yWkcoK1eulP8H5h9haghKjSeccIL4xz/+Ia655hrZfBvKzJkz5Wfo8P4777yz6L2vvPKKeOedd+RUkz/96U9ixIgR4qOPPhK//PKLfN1Wvnx5cfvtt8uagJu9e/eK//73v/Jfp3/+858iIyNDbRWHvw3vwyjf7du3ixNPPFHWNK6//nrZr3v88cerPc1WrFghZs2apbYKoWbeunVr8fvf/15uYxTxoEGDxI4dO+Rxx8hizO8qSY0R3xX54osvvpCtBJUrV5bfHVN0MG8s3Pc2wW+NJq/ly5eLn3/+WR5LfE98J+Q1TAOKBEZRf/bZZzLh+65du1Y0bNhQvoY+pyuvvLLEUyRMNRE03y1YsCBk14IJBpqMHDlSfm+dVQiVffRuxo4dK/OR080331xUC0UeHzZsmHysu+qqq4oGpBw8eFB8+umn8hzAeYtBczj2//rXv8Sf//xnuU8kUNvD3/Ptt9+KvLw8sXv3bnkeY9Qo8jdamkyQT9HihFYq5AHT4Jsrrrii2OAbnCv4roB8uWnTJvnYht8C53645lQcp9GjR4vPP/9c/Prrr/K3wHl/0UUXyTzoJb9gGhuucbrTTjtNtGrVqqhlLScnR4waNUrmyezsbJln8DehGRjXG6+QZzB2A+cNvutXX30ljy9qycjfN954o7HGnRBkeIxTl19+eVBpDcn6QdUe7qzAJkt2zmRlfLVHcdZJEHjttdcC1g9r/D/t9Lvf/S7wxBNPBKwTTr0z2AMPPBD0vgYNGgSsC25g+vTpgfr16xd7rXbt2oEffvgh8Pjjjxd73k5vvfWW+mSzJUuWBKyTLuh99erVU3scg9qadVIErBMhaH89VapUKXDfffcFvvzyy8DRo0fVu4t78803g95nnXzy+6xevTpw6aWXBr0+f/78qGqMVmEnYBU4AjfddFPQ+/RkndhynylTpgSsi616t5l1wQy8+uqrgXPPPdf4WXrCb/Tkk08GtmzZot5ttmzZskC7du0CJ510kvFz9PSXv/wl8N577wUOHDig3h0Z02dGW2NE/qtZs2bQ51lBXO1hhr/B+R4kHH8bjplpH6vQJPOWVTiTrTmmfZDOOeecYp8XihVcA1bhNWAVQI2fZaezzz5bnu/Iizr8fsj7pve4pRkzZqh3B+T/7Xwd+RrH1+TQoUPyb7MK3fLccb5XT7g2DR48OOTvi9/L+T6rYCHz2MaNGwNWgAxYBcmgfZCsQrG8tjmPiQ6/F64JVoHbeM3RE46jVVgNfPLJJwGroKE+ITHEdWA0ZTKkhx9+2PViHQ1cIK1am/H/cktWjUieRKbv4RYYEZRPP/30oNfswGjVLownx2WXXaY+2eyNN94Ieg+SVdpVexRCcLFqn8Z93ZJV+pOFDNPf6RYYrRpo4Kyzzgp6DSmawIj/261Z3S3he1i1ctcTEhck00UkXMJvZdXq1acUZ5Wcje8Jlzp16hRVfjZ9VqIFRqt25DkQTZ06VX1iMBSCHnnkEeP7QqU//vGPxX5PPwMj8maPHj3CBkRnwvUA+dfELTCi4H/xxRcHvWZKODdNwRF5dO7cuREfH6SBAwdGlcdjJa4DI0ovpoOM9Oijj8oaWEnhpGjatKnx/wiX0tPTA3PmzFGfdIxbYERpzfk8kh0YEaDxmc7XK1asGNi2bZv69GB///vfg96DUiEysW337t2BG264IWg/Lwn//4gRI9QnHeMWGO+9996g5+0UaWD87bff5AUv0ouHnVA4cAZHlJ5vueUW4/5e0vnnnx/48ccf1acV2rBhQyAjI8O4f7iEWu4zzzyjPsk702clUmDs2rWrLHiZXjOlzMzMwE8//aQ+tTjU5qPJI2lpabK2ZgcCvwIjCqlPPfVU0L5eE4KcqfXCLTC2bNky6Hm3hOP4zjvvqE88ZtasWVEFRTvhepEo4jowolnEdIDthEz90EMPBbKysgJbt26VF/9ISiW4YLZt29b42QgGdevWDVx55ZUyE5566qnGAT1ornQ2hZkCI5op3E5cOzC6vRdpyJAh8nUnBFPT/qjR6hfIQYMGyePl3A8BFCdu8+bNZbDCd8Hf7tzv5JNPDroomQIj/o9QTSyRBsaJEycavw+CSa1atWTz0tVXXy1/B1MT0XHHHRf4+uuv1acVWrFihXFf/EZoYkOQev3112VzEf5u535IzgvHjTfeaNwPTapo2n3ppZcC/fv3lzUUUzMfnlu1apX6NG+cn4GE4LFp0yb5W3lJtlgExuOPP77oMS64KBS6NfPZCU3PTvgtTPsi4bgiX+FcRsHFdA4j4ffBtQNdJMhLOA9MrTtI+J543U64/ti8BsYvvvjCmK+RatSoETjzzDNlqwvOY7fvjCZ7Z6HPFBiRr3G+2Ns4P1EgcftcJBSwnJ9tKljjfMd3RODFOdOrVy/ZNWEKoMib4bo34kVcB0Y0F1x33XVBB9iZ8OOccsopgQsuuCDQunVr2UTj/FFNcAExlVhxYqAdfc+ePWrPgKyxvfDCC0H7IiEz6NyCm53QbIuTedq0aTJ9+OGHRf8XTiDTCYOMh1KmE2pyzn2RUNu2IXieeOKJQfuccMIJgfHjxwd+/fVXtWfhvsOGDQvaF+nuu+9WexUyBUY9od8IfXj234mLWm5urufAuH//fvlbOPdDsENfC0YN2gUh7Pu///1PvubcHyc5ap623r17B+2D1KdPn6BCznfffSe/l3Pfhg0bqj0Csonc+ToSLsoIwjp8jzFjxgQFR+RhNIlHQn+/nXBBwkUV/dheki0WgREJfzea99Hysnz5cllw6tatm2vNBBddHc6b8847z7gvLsSzZ8+W+Rv74Xuged20L1p0UFDANQfnABLGMpj2RWuVvQ+SfrH3EhjRSoWCtnM/JLwfwXnfvn0yb6PAj+9suibgGCHA6kyB0U44l0aOHBlYunSpTDhfUBA07YuE30Jn6jfHOe6cIYBzCNdE575IoZrD40lcB0bARdRLcHQmlIqQgTEIxBRQ4J577gl6H0pXGOThBp/pfA8uknpwCRUY0XwSrlaLpg/n+3CS79q1S+1RCMHfNBgFpW4EDZvpO+NEGzdunNojGIIHLlrO96HJ0BYqMN5xxx2yBm/iNTBikJBzH6QuXbqoPYLhgmy6qKIZyPbggw8GvY7kvBDY0FSGmh5+F9ROkdBSYQfRnJwc4+c1a9ZMvu6E9912223yM6+66ir5ecjjkV40TP9npMkWq8CIc8XUX4YClWl/JPSX2ebNm2dsiUEQ0PfTmZr6UVDJzs5WexSKZrqGl8CIAqJzHyTUvPT9bAiS1157rfE9yDv68XMLjPht16xZo/Y6BuezW5Du16+f2quQaR/8vabrGfI4vgvyOLp68D1RuJ88ebLaI77FfWAEXGDxI+lNL14TSjnOHxjQP2kqheGkCRW4Fi5cGHThxf+hZzq3wIhmWbsvIxT0iznfi5MfpUcdSp6m0Xz4f2woKTdp0iTkPiYoPaOZyPk+DMSxuQVG9ME5a146L4ERhRnTyFk0L7kNPADUHHEyOt+HUrfNLTC++OKLao/iUADBxcntt0PLg+nzkE9QCzLB8bFrBdEy/Z+RJlssAiOaN92OKQqBpvcgoRZvc+s7Q9eBGxSSTO95//331R6FyiowtmnTJmgfJP2YOeHcR6Hd+R50J6AVxuYWGJ1/mw3577HHHjO+p0OHDmqvQqZ9UABxG+th53EvrXfxJiHux4h5aU888YScJ9OtWzc5V8aqEapXQ7OCh1wJpGvXrsXmaGEFfOsCq7aOsX5oueAvVsM3JdxvDXP1dHgO/084uE+bVZtTW+4wx8/JChTCKmmqrUJW8AqaMwWYk2TLy8uT8/KcsHKQ6e+zk3XxMc6FW7dunXrkDnMnrZNYbUXHCujGJfzwvTHX0PSdkTAf0Sr9q72PsUrG6pEQ1sVcPSoOeeTyyy8Xffr0ER9//LHMI/bvjXl1br8d5oli7pYT5ubh8+6++27x9ttvyzmf9jxNHB98plUrl9upqGnTpq7HFLcga9y4sdoywwpKmG9sYtVS1KNgVs1fzpl0JquwpvYoW5g76GTVFoVVoFNbwTAHGHnJCdcdzHkMBeexFTDVVnHIfzgeXtjzcHU4r+rXry+X3MSc5aysLHk7OVyv7DzuvF4mBBUgEwpqDCjNDR061PM0C9QO9Wr86NGjjfuhkxq1s1DJ9D603dtMNUbUKlFy9gKlOJQEnZ+BGpwOfWLOfZD0WgoGdJhq2uh4N/1tejI1pWJqgc1UY8TnfvTRR2oPMy81xu3bt8tt5z7Rfm+U0m34HdBs5dxHT/b/g2ZpDL5Cn2YoGBxl+hw74Tshb6EWiZoZBvZgWksq1xidfdZOpjyCZNcY0Qxoeh2pJMfVVlY1RvTtO/e56KKLXJt+bZ07dw56H9LixYvVHuYaI35XnE9u8H7ne5CcNUaM/DXtpyc7j+N6h8FBzj72RJGAoVzIFRxOPvlkYQUgWYtEjQirRWA1GesipvYqDrVDLOhrVe3ltl571FnVflnaCZVMUMMpLSjF4YanTiiJYdUKG1bOccrMzCxW0sbfbaoZWxcO49+mJyt/qL2PwR0HwsH3Lyn8TlitxCna7/3999+rR4Wl7169eoVsdbD/H9RKUBPFDZTRcnH//ffLFX+ckBdbhrh1E74T8hZqkajFYwWgyy67TN6jD4tOlxaU6lEjwd/rJSWyAwcOqEfFNWjQIK5r4miFcEJexHUtFLf1bNG644fHH39cXHrppWrLzM7jqMmilQQrDKFlwCpEu15z45GnwGhfcOKVVSKSzYdPP/20WLJkibzomU4MLJWEZcQAP148u+uuu2Twd8Jyc4AAaTohnnnmmWInWLz/dm4QSEwBrjQgb2CpMeQFqzQv75fnhVWil4UR5DXnzWitkrK8ryGaY63SsqfmI1xEEMRwwcGygPj8kqpYsaIM/LVr1/aUEhkKLSb4LZKR29/lVkAoDXZFAbA8HW651b59e1lI9Fr4QMESTa2PPvqo/LxEEHatVAST/Px8eaKjf8fUf1MWcNFHf5ET+g5MfV86nDA33HBDURDRPf/887KvDyV2rKvphDUN0c8Yqeuuu05ccskl8jEyjnNtSFws0TeGtSe9QGbEWoNYi1B3xx13yLUc33jjDVmL0SGQbty4sVh/Fy68KOU5a7RYL/KCCy5QW96hfxdrxsJbb70la+E65BOsnYjv7ga/T7i1UnNzc2WwcK7DiX4YrLEZKax7et9996mtY1ArRWEKfSOzZ8+W/cteLjQIKliH05kXUdNEv+/ixYtl4MWFxEuJHhcZ3LGhS5cu6pnwTBcmtBZEs1Yq1nNF7RW1WR36puzCpAn65Uz3J5wyZUrReqK4hpiCMPpesZ6pG9xZx5lHAMcTNWPkdbdztTQKVejDj/TuGvibnecs8jVathBYALVDZ8sLWrqQB9En5waF3pdfflltHYP32f2jKLQhH+tQccC1FP2YJsj/pv5NnC8Yn4Fghvxk/4bYxnq28+bNE19++aX82/Q+fDcI7AMHDgy6bsUlBEY3GG2EOTV68ouVAZCzg9Lw4cPVHqG5zTm05/ehD8T0ut5XGK2S9jHaTPPtMPcM/SeYDuF8DVM3rEyr3l0I/TCY4+nc1zn3MhpufYwff/yx2sPMSx8j5gZiPp5zHxzbsmQVSOQcL0wXwOhWrI3r/A52Mk02N8HIYKwXidF/GLFrmmuJhBG3kTB9BuZslubKN/idQsHf43wPUmn0MaLfzfQ+KzDK15GP0Kdl2gf53o1VMJNTM5xJn3IFZdXHiOldzn1OO+20sCt5mSbYoz/vm2++UXuUbh8jphTp137nak86HKuxY8fK8xNzI9E3b/pMzKfW533Gq7jtY8SNPk0wCs1LM+iMGTPUo+Iw2g3cRrxNnjxZPYo91HqdUBvBqvimfi7UwpxNeLjrhP0360yl/HiC721qSkYJtSyhVIu7GXTu3FnegQAjgdFnZbJmzRr1KDTU4PFboi8Rx/3DDz801ui81Cz9hrzmBjVBtILECka04o4qJririRs0g6MVxZlC1YxLk31HER1GYKPm5gZ97vPnz1dbx1gFN1kjjDWcq7gL0NChQ8XChQvF4MGD1SvFoSUMdzCJdyEDIw64fVHFBTeaJsZooRnFdPFAswGaQUP1x3zwwQeyem9ilWbkv2jeMAVf9BM5+490yLzoUMZtXJDQlNijR4+QF5BooWnLqgWqrUJoxrBqksUG4QD6FdGc64QAYyoEoLkFTW5u0IyEZmv777z33nvFs88+K5tP/IC+MtNFD8cZt+ZBk6UJmkFxGyAEInxvTB1B0zmG4wMGMKFJCk3S9t+G6RvoA3GyanAyoXk9lOnTp8tmQfvz8H+jacx02zMESTR7uTVrxQq6SEwFEVyw0TfkHDiBpkAMditLXqZkoa/YWRgEXKBNg1wAXRFoQtcT/j7cqs6LkvaTobnTCfn5kUceMU77QkUATeym1zAgp6xu7YS8avdr4nZaOI/sPI7uFFw/TQO47EFquNWeide+yZhSNceQMD0CyW/XX3+9sTqOYfRYVQQrt6CZyoZl3HCbE7dqPJJ1sqi9C2/XZNoHt7nR97Ph/zI176CZNNwE/2iaUgGr8Dg/y5SszKreEQxDpk3vQfON3gxjw8RcrMhiZeCg92DtUltZNqUCmpacS6chWSesXEfXBEPETc1r9gR/6yIY9BoS3oP844SmaetCZnyPvV4q1og0vX7JJZcYFzrASjnID8799SXavHC+HynaplT8Jm5TL3BssBas3TyJRR6waAR+a9P+SH5M1wCcp2iCdu6DvIvFL3CrJRuuYVjsw7SwBz4Dy7vp3JpScQ1w46Up1W0JQSQcZyecZ6bvjIQlHXWlPV0DXQs4blhtyrQPFlhA07QT1ic25Q9MVTGdE/HGU2CMFdySxnlgo034kdBvqcMPjhVgTPujLRxLxmFxYSSsiGO6mCFhOS/9xy7NwIh2fawQ4vw8PaGgYLrLhw7f3xToMMcRmRv9mfg7cScLnMjO/ZCwyoVeECnrwAhYjcZ0gqFvBYUg9CXje+PERYHGuR8S/kb97iSYi2naD3MbsdQb1trFPQKx6Df+D9Nxw4LUuMAB1op0K4xhkXN8P3we5s6ij7tOnTrGfSO9w4bpM6INjODWLx8q4e8zPe9XYER/+4ABA4z7IVm1YBmssB4rgrnpt0TCvVDxWToESrf+YJzP6EvDZ2LlI5uXwAgYy2AqwCGhwIoxBFZt2LWwgtSiRQv1aceU1TxGXIdM8y9xbuIcQYEDeRyFRcy3NI1rQCqNsQ1+iOvACLhJr+nCGGnCQsOoLTjhJENgMb3HS8LFVA8WUJqBEdxqznbCiReqYxywbBROENP7vaT09PSgW1/5ERhRIwi10HG4hICVpd39AHCRcgv+XhLyywcffKA+rRAuCG4XXS8Jd1SINH+YPqckgRETzPE9TJ9rSgjwWEfW9JpfgdGGmla0xx8LiJtgeUEs7mB6j52wTNuCBQvUO7wHRtTEcLsr575eE64n69atU592TFlO8DctVRlJClXTjjdxO/jG1q5dOznEFx3t0bAu1LJT+JNPPpFt304Y9o0BHW6TZ0M5/fTT5WAgfXpEWcAxCAV9nuiEDwXfFZ3imFQeKfQzDx8+vGi4uZ/wf6Nf09nX6gXyDPrBnEte4e/AdBr0H0YKcx4xT/aWW25RzxS65557ZN9lNPD7oc/X61SesoI+PfQloV/ai0GDBqlHsYeBUpj7Gyn0v9v9z07od0W/eqhrD/omvQ7C0qHvbsiQIbK/DteoSGBwGPq1sRSbnx577DHZD4rxDJHCJH/8RglDBci4h1vAoMqOkpKXkiFqChgWjekdXoYHY9FsrGAfrsSM/xu1J5RQnTVFW2nXGKG2YUFvO+GWTl6h1nznnXd6qj1aF8rApZdeGnRbGZsfNUYb+jHQDBPqnnp2QvMXmriw4HsoKMWj/9DURORM6OtEH6B+U1oT9H1iP+Q/0+foCb8BbpOGvBcN02eWpMZo++qrr+S5Y2rqw7FHXvzss8/kvvFSY7ThTvFYTjFcKxDOcyuQup7DOpxf+Jvd8t3999+v9vReY7Sh5ti3b1/Z8hTuuoZ8iu8calpHWdYYAc3Nb7/9trxXZbhjjOOF/xvXw1iMUSmJsBP84wlGg2ERa5TQMKLSymxi5cqV6tXC0VBYhMDKHHJpNAyLRo3DK+vHK/psDKvHZ2PEGkpI+GwM27/66qvliEOMbnUrOWGqiHM6BUqfqFWYaq1eYNLwt99+q7aKw6jBSGrU+MkxYtI6IWRtedGiRXKUIUZ0WhlZjti98sorZU0LI2PdPhtD9Z3D4q2TW9x8880hS7P4HceNGyeH++vwW2FxhFCsi6z8XdACgGOM74xFAFAjRk2wWbNmcjQrfnvTqGYnDB+3LrRytDOOx9dffy2fx7QY5CV8JvITjgU+00ttCksU4jsiH2GIPb4fJs4jD2ACNxaCwKhrTKouyfJlWOzcCS0HGInrdTUfN1iYGqOzrQBXNLweeQMjKvG97dYDLMiA39IJI4PtVhgr+MglwZxwPO1FAEwwetSZRwAjHq2CptoKZgUBuVCDnUesgoKc7oDfDtcFjELGgtwYheql9oPzBQtOYAUX1C537twpvxfyOBbJwOhte3EPjGrHwgM65Gv8JqFG2dqfj2sH8gxGouK44ZjjOOH7Im/jO4fKL2PHjpXniA75DpP13f5/jDw21ebsv80ExwDHGHkcizAgv+A5HGP8f8gjyCv4DOQD1JATSUIFRiIiorIW932MREREfmJgJCIi0jAwEhERaRgYiYiINAyMREREGgZGIiIiDQMjERGRhoGRiIhIw8BIRESkYWAkIiLSMDASERFpGBiJiIg0DIxEREQaBkYiIiINAyMREZGGgZGIiEjDwEhERKRhYCQiItIwMBIREWkYGImIiDQMjERERBoGRiIioiJC/D+Cf3kFEsblogAAAABJRU5ErkJggg==;" vertex="1" parent="1">
                    <mxGeometry x="-1127.85" y="460.57" width="75.25" height="38.29" as="geometry"/>
                </mxCell>
                <mxCell id="83" value="" style="group" vertex="1" connectable="0" parent="1">
                    <mxGeometry x="-932.5025" y="302" width="80" height="110.00478260869568" as="geometry"/>
                </mxCell>
                <mxCell id="71" value="" style="shadow=0;dashed=0;html=1;strokeColor=none;fillColor=#4495D1;labelPosition=center;verticalLabelPosition=bottom;verticalAlign=top;align=center;outlineConnect=0;shape=mxgraph.veeam.2d.web_ui;container=0;" vertex="1" parent="83">
                    <mxGeometry x="7.502500000000055" width="65" height="57.82608695652174" as="geometry"/>
                </mxCell>
                <mxCell id="72" value="&lt;br&gt;React&lt;br&gt;Conditional&lt;br&gt;UI" style="text;html=1;align=center;verticalAlign=middle;resizable=0;points=[];autosize=1;strokeColor=none;fillColor=none;container=0;" vertex="1" parent="83">
                    <mxGeometry y="40.00478260869568" width="80" height="70" as="geometry"/>
                </mxCell>
                <mxCell id="84" value="" style="endArrow=classic;html=1;" edge="1" parent="1">
                    <mxGeometry width="50" height="50" relative="1" as="geometry">
                        <mxPoint x="-892.5" y="461" as="sourcePoint"/>
                        <mxPoint x="-1032.85" y="460.56999999999994" as="targetPoint"/>
                    </mxGeometry>
                </mxCell>
                <mxCell id="85" value="" style="endArrow=classic;html=1;" edge="1" parent="1">
                    <mxGeometry width="50" height="50" relative="1" as="geometry">
                        <mxPoint x="-1138.5" y="460.57000000000016" as="sourcePoint"/>
                        <mxPoint x="-1250.5" y="460.56999999999994" as="targetPoint"/>
                    </mxGeometry>
                </mxCell>
                <mxCell id="89" value="" style="endArrow=classic;html=1;" edge="1" parent="1">
                    <mxGeometry width="50" height="50" relative="1" as="geometry">
                        <mxPoint x="-892.5" y="510" as="sourcePoint"/>
                        <mxPoint x="-892.79" y="420.57" as="targetPoint"/>
                    </mxGeometry>
                </mxCell>
                <mxCell id="90" value="" style="endArrow=none;html=1;" edge="1" parent="1">
                    <mxGeometry width="50" height="50" relative="1" as="geometry">
                        <mxPoint x="-1022.5" y="510" as="sourcePoint"/>
                        <mxPoint x="-892.5" y="510.4" as="targetPoint"/>
                    </mxGeometry>
                </mxCell>
                <mxCell id="100" value="" style="group" vertex="1" connectable="0" parent="1">
                    <mxGeometry x="-750" y="420" width="80" height="90" as="geometry"/>
                </mxCell>
                <mxCell id="95" value="" style="shape=image;verticalLabelPosition=bottom;labelBackgroundColor=default;verticalAlign=top;aspect=fixed;imageAspect=0;image=data:image/png,iVBORw0KGgoAAAANSUhEUgAAAJwAAAApCAYAAADAv0CLAAAAAXNSR0IArs4c6QAAAARnQU1BAACxjwv8YQUAAAAJcEhZcwAADsMAAA7DAcdvqGQAAAnmSURBVHhe7Zx7UFTXHce/uyzsKsgmoIui15JkiRhWEmeJjIDEXdGKbSdrMUrzcKsdQVNAO3THzrjYxlk7o5sEGjoJknYsjqYbR8Z1Wt0/SsBqWWt0ndbZxNemoJvxAfEBEQMp1P7u3SPvl7isrrmfmTPnnnN+59wL+72/3+/cyyKJiYm5iyCCrhfXrl1jLZFgQ8pqEZGAIApOJKCIghMJKA8kuHFJHEJjlKwlIjI8oxbcEz+cjenbX8X0d19nPSIiwzMqwY1Pmo6Y/EXCsSw6QqgfS5KMKKt2w1PvhdfrK+5jNpgz2bjIfXPfgpNFRWDyL7JY6zEmwwzHRxYYZijRdtUDzzkqXzZDOS0NeeW1sPYU3XITykotyMtgbZFBuW/Bxaz/PkKnPMFajy+F638KDaWn3iojNHN10GVSmauBscoLyNVYuq6QWRIpS2DINkA3g7VFBuW+BDdp9XxEpKhZ63HGiFS1nGoP6jbU+LoYNRsqYXfWwHbUDS3r00dGsiOR4Rix4CIXahC1PIW1Hndq0NTC1xziizihp5sdKFhhhLm0Bq5sK+yHXahYrKJ+JTQra1FbXYEevg+aVWVwnGB5YL0H7hMOlK3SsFEfhm12mmeHdTnljAddcJ/1wLGVDYK8ammt0MfnkJ6zbtTuMsMQx4YZ3MtmVFb75nrcLjhKjTDeWzebGQn0WY/Z9r6isWNEghuXOA2T1y9mre8CXticHrRDDm2+A86qSlg3GpGV2kd8kSqoJlPc7fA1lVM4cNM48PLj0b9TC/sWAzQTFWi+SEK42AzFRA0MW2xwbNEzK0pT4tRQz9Aga1MxDEkqKMPlUCj4EQ6mKhss2WooWkkclEd6WxVQ6/LwdrmZRn1wa22wl+ZBP4POfJOE/bUcmmwLirO1tK4aXBQzhB7Ww/Ze6zV2qgRb+8Hu9caSYQUXohwP1c8XQiILYT3fDeo2roS12kuiU4Kbo0dOvgUVHzvhPeuEbRMTy04KvQlqWD9tpkYz6raRcBKyYObH4iww/VgNebsHtjVqaOdTDjhfC90GOzzt5A1fNcHcy0vJ6UxuVBZlgeM46IqoK64QS+aQoBtrYNayPFKbC8dVsk5cwDxpDixr0qCS0fm3pvryTco1U+lGaeSzgh5wW0zIeUaOZqeF1vGtl/q8EbYv6NZKyoF1DTMcQ4YVXMy6TCievnfPDkzYopmQL06E4kezMN4wGxGvJCPyJylQvpGKJ1fPQ3SuDpPezITyBy+wGcGAFztWpUL9MoXP35NHcrrhvUHd4RzS1r4He79Q24d1adDISCvOHTBVsz7Ce6AANhcJVK5B2krWyXDTmHmvm7WIBhN083JgLDDDRk1NpgGGfBLkON+wQHYWNPzH01ALUzltaBjeA7nYf6qdtXwUpvKBsxGu6mvQ0iaH3+gYsiNR9y9+nhLxqQbBbiwZUnDRb6RjwvyZrDU4splTEDprKsKe56BI/h4ULz6NcXPVCE+fIcyfoH8OkZkaqEi8U81L2awg4XQNKreZkLsii7wBB+NePtQqoV1WjDRmMhB5cZOEuqWJl0pvdnzZJNSKXi9pmtFMOVVfuIwcFH9QK+Rbjp1lKNuYI+yeu4iSk2+k2ZfphvD1dNHS1saOeIzghEtSQb+Z1intUSjE8sjHxwj1WDKo4CIXJGLia0P9SruRyKSQhoZQkflKWAhCwny1JIQvUioSSKRSRKQ/y2Y9wuRXwuX2wv1xHuvopqbopO+DnRA5ZKJ96Iqw64A8pL8nTKMcbURkWLFrswHq8EbU7bSiYAPlkRRubV+wcZ5zLeDPpJyu7XMDUD6p7KnMexshEu7GAlqrfzH97pBgOZYMKDhFQqwQSkeKNCxUKLzIJOyYz/mkTGxSEppESsdSCW7/08NmPcKcbgGlWVBqKa/p+2tYw0FwFDebKOPqQ4801+u8QMGLPvaUYkrVe5KD3Bd5ETbiktPXMyjzNeCfzjS7KpGzmcJ4VQ2dMw/cRDbOc4Rujgaqp+lhKTWwxJ+DYWsFchKFBsOLunrhiqCZ00Jr2btLFHnRt4ph1A2dOvmDAQU3afVLkEYI26QRIYiLPJyE92rk7Xhh8d4MQi3pqjtu3UFj+Sds1iPMke2odPJ5lho55S44drHQs8sB18Y0CqiUoO/Zjjpm7hZchxLJP7OjotxCkiD2mrH/M8qhpmWh4pgd1nw+/7LCfsICPX2uzc4KmKt4wyH4rFEQrZI2IpZVNH+VCRXVBUjrFYrrUPBWJdzNcqizy+Csp92wx4mylRy8Dfxmphvb5v1w0yVx2e+h9kMTjJTDFW6zCz+TStEC73EXsxw7QiIiIn7DjruY+Ho6DYxccN9cu+nzcEJIJfEJApRRm9UyX//l3x5A27krbNbooOtFa2sra40VLXDtO4LO2S8hOS4Wsc8kIOE5Kk+pEN5JnuIPtNsr+TezJd/xuQwvLEpBfCyH+GcjcLmkEn+jNY7sdiM6Uw9t/FPQpC/BknQNYiM6yfv9EaYVJbi3QvIrbyKDXJP37+9j3ynWyXPGBUnSIqQkJkCro/m6FEzvcOKvp6OQwMnQeKkC9jNk958a7DlUDxmF0PDQTty5eBy73zXBxS3rve6tI9jzeTQWZaQgYVYK9IuXIG1WLMJpJ+2wrEThfl8aMJYM+CfmqrwFeHJpMmsNT+Op8xRO+VBK4uJrXmRCDtfdvv6no7ix7zibMXoC/yfmGugpqRbeJbQ1wXWwrl9yPixJehjifW8jWi7YUXNaOBwxXGoWtFMotg50fv7h869o53q+DNrXdrBOHg5lR50wxHlhn5eKAj7s9oDf8ap5Tznan2mUDPqdBv7NQqiql+8eGAmFzFmTu8QlCI33dOyYL1/XnsHVEgeb8GCI32noSyHsZ03Qymkz8OsVyN3lk45mgw22Igr/DXbkzCvoCv8PG798iSZ6+zKEyMMG9Gz/rW+C95cfMcsHRxRcf/g3DY5NfG4JtLdSkiaTQ85vhPmHzmt1vZ4DPmwGzOHul/CFiZDKyaN15W6+nA3tHbhisaOz5Rtm+eAEJocLLlpO7sNfjt9B+NQoRHTcQcutG6g/uRslRbkoOcaMHhH84uEmWZcjJFzOPFx3Ltf49iHcPnaBWfkH0cMFN0O+aRgplMUJz9x8RSqUm38+5nexiQQ/fhGcIDl+8yA8c5Pi9j/O4+a+T9mYiEg3fvRwPs/Wcek6vno/CB7uijwU/CK4kMhxgmdDx//Q9MEnuNvRyUZERHrjF8G1uRoE73b9w8P49uJXrFdEpD9++2c2krAQ3P127D2buEsNbvy0aUBAxCYS/PhNcCIiI0EUnEhAEQUnElBEwYkEFFFwIgHFb49FAgX/WEQkeAlKwYnP4YIXMaSKBBRRcCIBRRScSAAB/g9UghlE+t4FiAAAAABJRU5ErkJggg==;clipPath=inset(0% 80.13% 18.29% 0%);container=0;" vertex="1" parent="100">
                    <mxGeometry x="21.030000000000044" width="37.940298507462686" height="41" as="geometry"/>
                </mxCell>
                <mxCell id="99" value="SupaBase&amp;nbsp;&lt;br&gt;Storage&lt;br&gt;API" style="text;html=1;align=center;verticalAlign=middle;resizable=0;points=[];autosize=1;strokeColor=none;fillColor=none;" vertex="1" parent="100">
                    <mxGeometry y="41" width="80" height="60" as="geometry"/>
                </mxCell>
                <mxCell id="101" value="" style="endArrow=classic;html=1;entryX=0.5;entryY=0;entryDx=0;entryDy=0;" edge="1" parent="1" target="95">
                    <mxGeometry width="50" height="50" relative="1" as="geometry">
                        <mxPoint x="-710" y="332" as="sourcePoint"/>
                        <mxPoint x="-710" y="380" as="targetPoint"/>
                    </mxGeometry>
                </mxCell>
                <mxCell id="102" value="" style="endArrow=classic;html=1;" edge="1" parent="1">
                    <mxGeometry width="50" height="50" relative="1" as="geometry">
                        <mxPoint x="-710.4199999999998" y="520.9999999999999" as="sourcePoint"/>
                        <mxPoint x="-710" y="600" as="targetPoint"/>
                    </mxGeometry>
                </mxCell>
                <mxCell id="103" value="uploads&lt;br&gt;Bucket&lt;br&gt;Insertion" style="text;html=1;align=center;verticalAlign=middle;resizable=0;points=[];autosize=1;strokeColor=none;fillColor=none;container=0;" vertex="1" parent="1">
                    <mxGeometry x="-709.9999999999999" y="530" width="70" height="60" as="geometry"/>
                </mxCell>
                <mxCell id="104" value="" style="endArrow=classic;html=1;" edge="1" parent="1">
                    <mxGeometry width="50" height="50" relative="1" as="geometry">
                        <mxPoint x="-760" y="460.9" as="sourcePoint"/>
                        <mxPoint x="-870" y="460.56999999999994" as="targetPoint"/>
                    </mxGeometry>
                </mxCell>
                <mxCell id="106" value="" style="group" vertex="1" connectable="0" parent="1">
                    <mxGeometry x="-750" y="610" width="80" height="95" as="geometry"/>
                </mxCell>
                <mxCell id="105" value="" style="sketch=0;html=1;aspect=fixed;strokeColor=none;shadow=0;align=center;verticalAlign=top;fillColor=#3B8DF1;shape=mxgraph.gcp2.bucket_scale" vertex="1" parent="106">
                    <mxGeometry x="15" width="50" height="40.5" as="geometry"/>
                </mxCell>
                <mxCell id="36" value="&lt;br&gt;SupaBase &lt;br&gt;Stoage &lt;br&gt;Buckets" style="text;html=1;align=center;verticalAlign=middle;resizable=0;points=[];autosize=1;strokeColor=none;fillColor=none;container=0;" vertex="1" parent="106">
                    <mxGeometry y="25" width="80" height="70" as="geometry"/>
                </mxCell>
                <mxCell id="108" value="" style="group" vertex="1" connectable="0" parent="1">
                    <mxGeometry x="-1825" y="170" width="125" height="391.0047826086957" as="geometry"/>
                </mxCell>
                <mxCell id="51" value="" style="rounded=1;whiteSpace=wrap;html=1;fillColor=none;container=0;" vertex="1" parent="108">
                    <mxGeometry y="1" width="125" height="390" as="geometry"/>
                </mxCell>
                <mxCell id="30" value="" style="endArrow=classic;html=1;" edge="1" parent="108">
                    <mxGeometry width="50" height="50" relative="1" as="geometry">
                        <mxPoint x="64.71000000000004" y="235.00000000000003" as="sourcePoint"/>
                        <mxPoint x="64.71000000000004" y="265" as="targetPoint"/>
                    </mxGeometry>
                </mxCell>
                <mxCell id="52" value="&lt;font style=&quot;font-size: 18px;&quot;&gt;Client&lt;/font&gt;" style="text;html=1;align=center;verticalAlign=middle;resizable=0;points=[];autosize=1;strokeColor=none;fillColor=none;container=0;" vertex="1" parent="108">
                    <mxGeometry x="25.5" y="-5" width="70" height="40" as="geometry"/>
                </mxCell>
                <mxCell id="2" value="" style="verticalLabelPosition=bottom;html=1;verticalAlign=top;align=center;strokeColor=none;fillColor=#00BEF2;shape=mxgraph.azure.user;container=0;" vertex="1" parent="108">
                    <mxGeometry x="36.75" y="30" width="47.5" height="50" as="geometry"/>
                </mxCell>
                <mxCell id="7" value="User" style="text;html=1;align=center;verticalAlign=middle;resizable=0;points=[];autosize=1;strokeColor=none;fillColor=none;container=0;" vertex="1" parent="108">
                    <mxGeometry x="35.5" y="80" width="50" height="30" as="geometry"/>
                </mxCell>
                <mxCell id="19" value="" style="endArrow=classic;html=1;" edge="1" parent="108">
                    <mxGeometry width="50" height="50" relative="1" as="geometry">
                        <mxPoint x="60.210000000000036" y="100.00000000000003" as="sourcePoint"/>
                        <mxPoint x="60.5" y="140.00000000000003" as="targetPoint"/>
                    </mxGeometry>
                </mxCell>
                <mxCell id="4" value="" style="shadow=0;dashed=0;html=1;strokeColor=none;fillColor=#4495D1;labelPosition=center;verticalLabelPosition=bottom;verticalAlign=top;align=center;outlineConnect=0;shape=mxgraph.veeam.2d.web_ui;container=0;" vertex="1" parent="108">
                    <mxGeometry x="32.5" y="280.56999999999994" width="65" height="57.82608695652174" as="geometry"/>
                </mxCell>
                <mxCell id="13" value="&lt;br&gt;React&lt;br&gt;Default&lt;br&gt;UI" style="text;html=1;align=center;verticalAlign=middle;resizable=0;points=[];autosize=1;strokeColor=none;fillColor=none;container=0;" vertex="1" parent="108">
                    <mxGeometry x="34.997499999999945" y="321.0047826086957" width="60" height="70" as="geometry"/>
                </mxCell>
                <mxCell id="25" value="" style="aspect=fixed;html=1;points=[];align=center;image;fontSize=12;image=img/lib/azure2/general/Browser.svg;container=0;" vertex="1" parent="108">
                    <mxGeometry x="30" y="150.00000000000003" width="65" height="52" as="geometry"/>
                </mxCell>
                <mxCell id="26" value="Browser" style="text;html=1;align=center;verticalAlign=middle;resizable=0;points=[];autosize=1;strokeColor=none;fillColor=none;container=0;" vertex="1" parent="108">
                    <mxGeometry x="25.5" y="205.00000000000003" width="70" height="30" as="geometry"/>
                </mxCell>
                <mxCell id="110" value="" style="shape=image;verticalLabelPosition=bottom;labelBackgroundColor=default;verticalAlign=top;aspect=fixed;imageAspect=0;image=https://upload.wikimedia.org/wikipedia/commons/thumb/b/bd/Google_Maps_Logo_2020.svg/1137px-Google_Maps_Logo_2020.svg.png;" vertex="1" parent="1">
                    <mxGeometry x="-2070" y="441.63" width="107.5" height="96.75" as="geometry"/>
                </mxCell>
                <mxCell id="112" value="" style="endArrow=classic;startArrow=classic;html=1;fontSize=18;exitX=1;exitY=0.5;exitDx=0;exitDy=0;entryX=-0.04;entryY=0.818;entryDx=0;entryDy=0;entryPerimeter=0;" edge="1" parent="1" source="110" target="51">
                    <mxGeometry width="50" height="50" relative="1" as="geometry">
                        <mxPoint x="-1930" y="400" as="sourcePoint"/>
                        <mxPoint x="-1870" y="470" as="targetPoint"/>
                    </mxGeometry>
                </mxCell>
                <mxCell id="113" value="Google Maps&amp;nbsp;&lt;br&gt;Api&amp;nbsp;&lt;br&gt;Request /&amp;nbsp; Response" style="text;html=1;align=center;verticalAlign=middle;resizable=0;points=[];autosize=1;strokeColor=none;fillColor=none;container=0;" vertex="1" parent="1">
                    <mxGeometry x="-1962.5" y="420.57" width="140" height="60" as="geometry"/>
                </mxCell>
            </root>
        </mxGraphModel>
    </diagram>
</mxfile>